<?xml version="1.0" encoding="UTF-8"?>
<!DOCTYPE svg PUBLIC "-//W3C//DTD SVG 1.1//EN" "http://www.w3.org/Graphics/SVG/1.1/DTD/svg11.dtd">
<!-- Creator: CorelDRAW 2019 (64-Bit) -->
<svg xmlns="http://www.w3.org/2000/svg" xml:space="preserve" width="719px" height="719px" version="1.1" style="shape-rendering:geometricPrecision; text-rendering:geometricPrecision; image-rendering:optimizeQuality; fill-rule:evenodd; clip-rule:evenodd"
viewBox="0 0 503.28 503.28"
 xmlns:xlink="http://www.w3.org/1999/xlink">
 <defs>
  <style type="text/css">
   <![CDATA[
    .fil0 {fill:#A8CF45}
    .fil1 {fill:#FEFEFE}
   ]]>
  </style>
 </defs>
 <g id="Capa_x0020_1">
  <metadata id="CorelCorpID_0Corel-Layer"/>
  <circle class="fil0" cx="251.64" cy="251.64" r="251.64"/>
  <path id="info.svg" class="fil1" d="M204.1 356.84l12.58 0 0 -90.32 -12.58 0c-6.9,0 -12.42,-5.53 -12.42,-12.43l0 -29.9c0,-6.9 5.52,-12.57 12.42,-12.57l70.08 0c6.9,0 12.42,5.67 12.42,12.57l0 132.65 12.58 0c6.9,0 12.42,5.67 12.42,12.57l0 29.75c0,6.9 -5.52,12.58 -12.42,12.58l-95.08 0c-6.9,0 -12.42,-5.68 -12.42,-12.58l0 -29.75c0,-6.9 5.52,-12.57 12.42,-12.57l0 0 0 0zm47.54 -265.14c-24.84,0 -45.08,20.09 -45.08,44.93 0,24.84 20.24,45.09 45.08,45.09 24.84,0 45.09,-20.25 45.09,-45.09 0,-24.84 -20.25,-44.93 -45.09,-44.93z"/>
 </g>
</svg>
