<?xml version="1.0" encoding="UTF-8"?>
<!DOCTYPE svg PUBLIC "-//W3C//DTD SVG 1.1//EN" "http://www.w3.org/Graphics/SVG/1.1/DTD/svg11.dtd">
<!-- Creator: CorelDRAW X8 -->
<svg xmlns="http://www.w3.org/2000/svg" xml:space="preserve" width="531px" height="531px" version="1.1" style="shape-rendering:geometricPrecision; text-rendering:geometricPrecision; image-rendering:optimizeQuality; fill-rule:evenodd; clip-rule:evenodd"
viewBox="0 0 126 126"
 xmlns:xlink="http://www.w3.org/1999/xlink">
 <defs>
  <style type="text/css">
   <![CDATA[
    .fil0 {fill:#F58634}
   ]]>
  </style>
 </defs>
 <g id="Capa_x0020_1">
  <metadata id="CorelCorpID_0Corel-Layer"/>
  <path id="arrow-alt-circle-left.svg" class="fil0" d="M63 126c-35,0 -63,-28 -63,-63 0,-35 28,-63 63,-63 35,0 63,28 63,63 0,35 -28,63 -63,63zm29 -74l-29 0 0 -18c0,-3 -3,-4 -5,-2l-29 29c-1,1 -1,3 0,4l29 29c2,2 5,1 5,-2l0 -18 29 0c2,0 3,-1 3,-3l0 -16c0,-2 -1,-3 -3,-3z"/>
 </g>
</svg>
