<?xml version="1.0" encoding="UTF-8"?>
<!DOCTYPE svg PUBLIC "-//W3C//DTD SVG 1.1//EN" "http://www.w3.org/Graphics/SVG/1.1/DTD/svg11.dtd">
<!-- Creator: CorelDRAW X8 -->
<svg xmlns="http://www.w3.org/2000/svg" xml:space="preserve" width="393.868mm" height="60.8634mm" version="1.1" style="shape-rendering:geometricPrecision; text-rendering:geometricPrecision; image-rendering:optimizeQuality; fill-rule:evenodd; clip-rule:evenodd"
viewBox="0 0 40222 6215"
 xmlns:xlink="http://www.w3.org/1999/xlink">
 <defs>
  <style type="text/css">
   <![CDATA[
    .fil8 {fill:none}
    .fil4 {fill:#FEFEFE}
    .fil0 {fill:#D2D3D5}
    .fil3 {fill:#FFF212}
    .fil9 {fill:#EC268F}
    .fil2 {fill:#00AFEF}
    .fil1 {fill:#ED3237}
    .fil10 {fill:#FEFEFE;fill-rule:nonzero}
    .fil6 {fill:#373435;fill-rule:nonzero}
    .fil7 {fill:#ED3237;fill-rule:nonzero}
    .fil5 {fill:#00AFEF;fill-rule:nonzero}
   ]]>
  </style>
   <clipPath id="id0">
    <path d="M0 0l34308 0c-932,766 -1518,1875 -1518,3108 0,1233 586,2341 1518,3107l-34308 0 0 -6215z"/>
   </clipPath>
 </defs>
 <g id="Capa_x0020_1">
  <metadata id="CorelCorpID_0Corel-Layer"/>
  <path class="fil0" d="M0 0l34308 0c-932,766 -1518,1875 -1518,3108 0,1233 586,2341 1518,3107l-34308 0 0 -6215z"/>
  <g style="clip-path:url(#id0)">
   <g id="_1490531831728">
    <path id="1" class="fil1" d="M13748 1849c176,102 276,276 276,478l0 781 0 780c0,203 -100,377 -276,478l-676 390 -676 391c-175,101 -376,101 -551,0l-676 -391c1903,0 1697,-2844 2579,-2907z"/>
    <path class="fil2" d="M12396 1069l676 390 338 195c-1112,309 -934,2227 -3193,2234l0 -780 0 -781c0,-202 100,-376 275,-478l677 -390 676 -390c175,-101 376,-101 551,0z"/>
    <path class="fil3" d="M13748 1849c-882,63 -676,2907 -2579,2907l-677 -390c-175,-101 -275,-275 -275,-478 2259,-7 2081,-1925 3193,-2234l338 195z"/>
    <path class="fil4" d="M12641 2603l-33 0 0 -201c0,-187 -415,-334 -937,-334 -522,0 -937,147 -937,334l0 201 -34 0c-55,0 -100,45 -100,101l0 334c0,56 45,101 100,101l34 0 0 669c0,74 59,134 133,134l0 134c0,74 60,134 134,134l134 0c74,0 134,-60 134,-134l0 -134 803 0 0 134c0,74 60,134 134,134l134 0c74,0 134,-60 134,-134l0 -134 27 0c67,0 107,-54 107,-107l0 -696 33 0c56,0 101,-45 101,-101l0 -334c0,-56 -45,-101 -101,-101z"/>
    <path class="fil3" d="M12273 3741c-74,0 -134,-60 -134,-134 0,-74 60,-134 134,-134 74,0 134,60 134,134 0,74 -60,134 -134,134z"/>
    <path class="fil3" d="M11135 3273c-74,0 -134,-60 -134,-134l0 -536c0,-74 60,-134 134,-134l1071 0c74,0 134,60 134,134l0 536c0,74 -60,134 -134,134l-1071 0z"/>
    <path class="fil3" d="M11068 3741c-74,0 -134,-60 -134,-134 0,-74 60,-134 134,-134 74,0 134,60 134,134 0,74 -60,134 -134,134z"/>
    <path class="fil5" d="M14957 2734l-202 0 0 294 194 0c88,0 149,-11 183,-33 15,-10 29,-25 42,-46 12,-21 19,-45 19,-73 0,-56 -24,-97 -71,-122 -24,-13 -79,-20 -165,-20zm-202 447l0 297c0,68 -7,113 -20,135 -17,30 -48,45 -92,45 -55,0 -88,-27 -98,-81 -4,-25 -6,-58 -6,-99l0 -730c0,-51 1,-84 4,-101 3,-16 12,-32 26,-47 15,-16 32,-26 52,-29 19,-3 52,-5 99,-5l304 0c112,0 195,15 248,46 94,56 141,139 141,252 0,43 -8,83 -23,118 -16,35 -33,62 -52,81 -42,42 -108,72 -198,92 73,41 140,113 201,215 60,102 90,166 90,193 0,28 -10,50 -29,68 -20,18 -41,27 -66,27 -24,0 -43,-3 -55,-8 -21,-8 -44,-32 -69,-71 -7,-11 -20,-31 -38,-59l-88 -145c-51,-83 -93,-136 -127,-160 -34,-23 -76,-35 -128,-34l-76 0z"/>
    <path id="1" class="fil6" d="M15597 3360l0 -351c0,-51 3,-84 7,-100 4,-17 11,-29 20,-37 21,-19 45,-29 72,-29 26,0 50,10 70,28 21,19 31,66 31,142l0 275c0,71 8,121 23,149 24,42 62,63 112,63 31,0 60,-8 88,-24 29,-16 51,-39 66,-68 16,-29 24,-96 23,-200l0 -199c0,-73 10,-119 29,-138 18,-18 42,-28 69,-28 28,0 53,10 74,29 12,12 20,28 23,47 3,19 5,49 5,90l0 494c0,57 -5,93 -13,107 -17,32 -45,48 -82,48 -65,0 -96,-46 -94,-139 -51,67 -105,108 -162,125 -82,24 -159,19 -233,-15 -85,-40 -128,-129 -128,-269z"/>
    <path id="2" class="fil6" d="M16966 3562c0,65 -75,97 -225,96 -29,0 -58,-6 -87,-17 -28,-12 -50,-25 -65,-40 -14,-14 -25,-35 -32,-62 -8,-28 -12,-51 -14,-69 -1,-19 -1,-45 -1,-79l0 -384 -26 0c-42,0 -67,-10 -75,-30 -9,-19 -13,-34 -13,-45 0,-49 31,-74 92,-74l22 0 0 -118c0,-62 4,-101 13,-116 19,-34 47,-51 86,-51 39,0 68,17 87,51 8,16 13,50 13,100l0 134 39 0c45,0 75,5 89,13 22,12 33,32 33,60 0,50 -41,75 -123,76l-38 0 0 379c0,38 3,64 7,79 5,16 12,26 22,30 21,11 46,12 73,5 28,-7 50,-10 65,-10 15,0 29,7 41,21 12,14 17,31 17,51z"/>
    <path id="3" class="fil6" d="M17227 3488c21,23 53,35 96,35 44,0 84,-11 120,-33 37,-22 62,-52 75,-90 9,-24 13,-73 13,-148 -30,13 -78,26 -144,38 -66,13 -115,28 -146,46 -31,17 -46,41 -46,71 0,31 11,57 32,81zm35 170c-91,1 -158,-23 -202,-72 -43,-48 -64,-102 -64,-161 0,-60 19,-106 58,-140 38,-35 78,-57 120,-69 42,-11 99,-24 170,-39 72,-15 133,-30 186,-44 -4,-65 -16,-107 -38,-126 -21,-19 -56,-29 -105,-29 -90,0 -149,26 -177,77 -11,20 -20,35 -25,44 -5,9 -14,17 -26,25 -12,8 -28,12 -46,12 -19,0 -37,-7 -54,-21 -17,-14 -26,-35 -26,-64 0,-28 12,-58 34,-88 62,-81 161,-121 296,-120 87,0 154,8 202,22 84,24 135,79 154,164 8,36 11,80 10,132l-4 187c-2,58 4,106 17,143 14,37 20,66 20,86 0,21 -9,39 -27,56 -19,17 -39,25 -62,25 -41,0 -84,-39 -129,-116 -97,77 -191,116 -282,116z"/>
    <path id="4" class="fil6" d="M18575 3394c0,90 -32,156 -96,200 -64,43 -148,65 -252,64 -53,0 -101,-6 -143,-17 -69,-20 -121,-53 -155,-99 -25,-34 -38,-64 -38,-91 0,-27 8,-48 24,-64 15,-15 36,-23 62,-23 25,0 45,9 59,28 6,6 13,17 23,33 10,16 19,30 29,41 9,12 28,24 56,37 29,13 63,20 103,20 39,0 71,-9 96,-26 26,-17 39,-37 39,-60 0,-22 -5,-39 -13,-52 -20,-28 -65,-49 -135,-64 -70,-15 -126,-31 -169,-48 -43,-17 -74,-33 -93,-49 -19,-15 -36,-35 -51,-60 -15,-25 -22,-50 -22,-74 0,-50 18,-100 55,-150 20,-28 53,-51 98,-69 46,-18 100,-27 164,-26 100,0 178,21 234,62 57,42 85,84 85,125 0,21 -7,39 -21,55 -14,16 -31,23 -50,23 -19,0 -33,-1 -40,-2 -20,-6 -46,-28 -78,-69 -32,-39 -77,-59 -134,-59 -29,0 -56,6 -84,17 -27,12 -40,32 -40,59 0,27 14,48 43,62 29,15 88,33 176,54 179,43 268,117 268,222z"/>
    <path id="5" class="fil6" d="M19931 3488c21,23 54,35 97,35 43,0 83,-11 120,-33 37,-22 62,-52 75,-90 8,-24 13,-73 13,-148 -30,13 -78,26 -144,38 -67,13 -115,28 -146,46 -31,17 -46,41 -46,71 0,31 10,57 31,81zm36 170c-91,1 -158,-23 -202,-72 -43,-48 -65,-102 -65,-161 0,-60 20,-106 58,-140 39,-35 79,-57 121,-69 42,-11 99,-24 170,-39 71,-15 133,-30 185,-44 -3,-65 -15,-107 -37,-126 -21,-19 -56,-29 -105,-29 -91,0 -150,26 -177,77 -12,20 -20,35 -25,44 -6,9 -14,17 -27,25 -12,8 -27,12 -46,12 -18,0 -36,-7 -53,-21 -17,-14 -26,-35 -26,-64 0,-28 11,-58 34,-88 62,-81 161,-121 296,-120 86,0 154,8 201,22 85,24 136,79 155,164 7,36 11,80 10,132l-5 187c-2,58 4,106 18,143 13,37 20,66 20,86 0,21 -9,39 -28,56 -18,17 -39,25 -62,25 -40,0 -83,-39 -128,-116 -97,77 -191,116 -282,116z"/>
    <path id="6" class="fil6" d="M20884 3443c39,41 84,62 133,62 50,0 95,-20 134,-61 39,-40 58,-103 58,-189 0,-86 -17,-151 -53,-193 -35,-43 -81,-64 -137,-64 -57,-1 -103,23 -138,71 -37,48 -55,112 -55,192 0,81 20,141 58,182zm-68 101c0,76 -33,114 -99,114 -30,0 -52,-7 -68,-22 -16,-14 -25,-31 -28,-50 -3,-18 -4,-46 -4,-84l0 -788c0,-49 2,-83 7,-104 5,-20 17,-36 34,-47 17,-10 35,-15 53,-15 35,0 59,9 72,27 14,18 21,40 23,65 7,24 10,47 10,68l0 260c23,-24 42,-42 58,-56 16,-14 43,-29 81,-44 38,-16 79,-24 123,-23 108,0 190,39 246,115 56,77 85,172 85,287 0,115 -29,213 -88,292 -58,79 -139,119 -244,119 -72,0 -129,-16 -172,-48 -21,-16 -38,-30 -49,-41 -12,-12 -25,-27 -40,-45l0 20z"/>
    <path id="7" class="fil6" d="M21760 3488c21,23 53,35 96,35 44,0 84,-11 121,-33 36,-22 61,-52 74,-90 9,-24 13,-73 13,-148 -29,13 -77,26 -144,38 -66,13 -115,28 -146,46 -30,17 -46,41 -46,71 0,31 11,57 32,81zm36 170c-91,1 -159,-23 -203,-72 -43,-48 -64,-102 -64,-161 0,-60 19,-106 58,-140 38,-35 79,-57 121,-69 42,-11 98,-24 170,-39 71,-15 133,-30 185,-44 -3,-65 -16,-107 -37,-126 -22,-19 -57,-29 -105,-29 -91,0 -150,26 -178,77 -11,20 -19,35 -25,44 -5,9 -14,17 -26,25 -12,8 -28,12 -46,12 -19,0 -36,-7 -53,-21 -18,-14 -27,-35 -27,-64 0,-28 12,-58 35,-88 62,-81 160,-121 295,-120 87,0 154,8 202,22 84,24 136,79 154,164 8,36 11,80 10,132l-4 187c-2,58 4,106 18,143 13,37 19,66 19,86 0,21 -9,39 -27,56 -18,17 -39,25 -62,25 -41,0 -83,-39 -128,-116 -98,77 -192,116 -282,116z"/>
    <path id="8" class="fil6" d="M23168 3164l0 328c0,50 -2,83 -6,99 -5,17 -12,29 -21,37 -22,20 -46,30 -72,30 -25,0 -49,-9 -72,-29 -19,-19 -28,-65 -28,-137l0 -290c0,-74 -10,-125 -28,-153 -23,-34 -60,-51 -111,-51 -28,0 -56,8 -83,23 -47,28 -75,73 -85,135 -4,25 -6,68 -7,128l0 208c0,50 -2,83 -6,100 -5,16 -12,28 -21,36 -22,20 -46,30 -71,30 -26,0 -50,-9 -73,-28 -17,-18 -27,-43 -28,-76 0,-13 0,-34 0,-62l0 -493c0,-46 2,-78 6,-93 5,-16 12,-27 21,-35 19,-18 44,-27 75,-27 32,0 54,12 67,35 13,22 19,55 20,98 69,-88 154,-132 255,-132 101,0 176,37 226,112 28,43 42,112 42,207z"/>
    <path id="9" class="fil6" d="M23556 3488c21,23 53,35 97,35 43,0 83,-11 120,-33 36,-22 61,-52 74,-90 9,-24 14,-73 14,-148 -30,13 -78,26 -145,38 -66,13 -115,28 -145,46 -31,17 -46,41 -46,71 0,31 10,57 31,81zm36 170c-91,1 -158,-23 -202,-72 -44,-48 -65,-102 -65,-161 0,-60 19,-106 58,-140 39,-35 79,-57 121,-69 42,-11 99,-24 170,-39 71,-15 133,-30 185,-44 -3,-65 -16,-107 -37,-126 -21,-19 -57,-29 -105,-29 -91,0 -150,26 -178,77 -11,20 -19,35 -24,44 -6,9 -15,17 -27,25 -12,8 -27,12 -46,12 -18,0 -36,-7 -53,-21 -18,-14 -26,-35 -26,-64 0,-28 11,-58 34,-88 62,-81 160,-121 295,-120 87,0 154,8 202,22 84,24 136,79 154,164 8,36 12,80 11,132l-5 187c-2,58 4,106 18,143 13,37 20,66 20,86 0,21 -10,39 -28,56 -18,17 -39,25 -62,25 -40,0 -83,-39 -128,-116 -97,77 -191,116 -282,116z"/>
    <path id="10" class="fil7" d="M19574 3324c0,95 -37,174 -111,238 -75,64 -178,96 -312,96 -69,0 -131,-9 -185,-27 -55,-18 -97,-40 -126,-65 -29,-25 -55,-57 -79,-97 -24,-40 -36,-77 -36,-110 0,-33 8,-59 25,-79 16,-20 36,-30 59,-30 39,0 68,17 85,51 7,13 17,36 31,68 37,91 108,136 213,136 59,0 110,-14 154,-41 44,-27 66,-66 66,-118 0,-63 -37,-108 -110,-136 -34,-13 -85,-27 -155,-44 -71,-16 -124,-32 -158,-46 -130,-55 -194,-145 -195,-270 0,-92 35,-165 107,-220 72,-55 170,-82 294,-82 76,0 141,11 196,32 55,21 95,47 120,78 48,60 72,110 71,152 0,23 -9,45 -27,68 -18,22 -41,33 -69,33 -29,0 -50,-7 -65,-22 -14,-15 -27,-35 -39,-60 -12,-24 -20,-41 -26,-50 -37,-52 -88,-78 -153,-78 -64,0 -115,11 -153,33 -39,22 -57,52 -56,90 0,37 16,67 47,91 13,8 32,17 57,27 26,10 45,17 60,20 14,3 51,12 110,27 118,28 205,65 260,109 67,52 100,128 100,226z"/>
   </g>
  </g>
  <path class="fil8" d="M0 0l34308 0c-932,766 -1518,1875 -1518,3108 0,1233 586,2341 1518,3107l-34308 0 0 -6215z"/>
  <circle class="fil9" cx="37114" cy="3108" r="3108"/>
  <path class="fil10" d="M36810 4414c81,-77 179,-115 294,-115 116,0 206,38 271,115 65,76 98,168 100,276 0,108 -39,200 -115,277 -79,76 -171,115 -279,117 -109,0 -200,-38 -277,-115 -76,-78 -115,-171 -115,-278 0,-109 40,-201 121,-277zm269 -356c-222,0 -336,-126 -342,-379 0,-140 32,-270 94,-392 62,-122 128,-218 198,-288 69,-69 175,-165 318,-285 143,-120 238,-219 287,-295 49,-77 72,-171 70,-283 0,-111 -50,-216 -151,-314 -101,-97 -220,-146 -357,-146 -252,0 -424,66 -516,199 -61,89 -121,212 -178,369 -65,197 -179,296 -344,296 -96,0 -178,-35 -245,-104 -67,-71 -100,-139 -100,-208 0,-162 44,-311 130,-449 88,-138 178,-251 269,-337 95,-86 224,-159 389,-220 165,-60 351,-91 558,-91 378,0 682,102 911,305 230,203 345,446 345,729 0,193 -47,352 -138,480 -92,126 -291,329 -600,609 -96,98 -157,178 -185,236 -27,60 -54,159 -81,298 -43,181 -154,270 -332,270z"/>
 </g>
</svg>
