<?xml version="1.0" encoding="UTF-8"?>
<!DOCTYPE svg PUBLIC "-//W3C//DTD SVG 1.1//EN" "http://www.w3.org/Graphics/SVG/1.1/DTD/svg11.dtd">
<!-- Creator: CorelDRAW 2019 (64-Bit) -->
<svg xmlns="http://www.w3.org/2000/svg" xml:space="preserve" width="580px" height="580px" version="1.1" style="shape-rendering:geometricPrecision; text-rendering:geometricPrecision; image-rendering:optimizeQuality; fill-rule:evenodd; clip-rule:evenodd"
viewBox="0 0 580 580"
 xmlns:xlink="http://www.w3.org/1999/xlink">
 <defs>
  <style type="text/css">
   <![CDATA[
    .fil0 {fill:#FEFEFE}
   ]]>
  </style>
 </defs>
 <g id="Capa_x0020_1">
  <metadata id="CorelCorpID_0Corel-Layer"/>
  <path class="fil0" d="M554.4 154.79l-12.95 0 0 -64.74c0,-51.5 -103.29,-90.05 -245.12,-90.05 -141.54,0 -257.78,38.55 -257.78,90.05l0 64.74 -12.95 0c-12.95,0 -25.6,0 -25.6,25.6l0 90.34c0,12.94 12.65,25.6 25.6,25.6l12.95 0 0 180.68c0,12.95 12.95,25.89 38.55,25.89l0 38.55c0,25.9 12.95,38.55 39.14,38.55l38.55 0c12.94,0 25.6,-12.65 25.6,-38.55l0 -38.55 218.93 0 0 38.55c0,25.9 12.95,38.55 38.84,38.55l38.85 0c12.95,0 25.89,-12.65 25.89,-38.55l0 -38.55 12.66 0c12.94,0 25.89,-12.94 25.89,-25.89l0 -180.68 12.95 0c12.95,0 25.6,-12.65 25.6,-25.6l0 -90.34c0,-25.6 -12.65,-25.6 -25.6,-25.6l0 0 0 0zm-425.51 296.32c-12.65,0 -38.84,-12.95 -38.84,-38.84 0,-12.95 26.19,-25.6 38.84,-25.6 25.9,0 38.84,12.65 38.84,25.6 0,25.89 -12.94,38.84 -38.84,38.84zm25.89 -128.89c-25.89,0 -38.55,-12.94 -38.55,-25.89l0 -141.54c0,-25.9 12.66,-38.55 38.55,-38.55l283.38 0c12.95,0 38.85,12.65 38.85,38.55l0 141.54c0,12.94 -25.9,25.89 -38.85,25.89l-283.38 0zm296.33 128.89c-12.95,0 -38.84,-12.95 -38.84,-38.84 0,-12.95 25.89,-25.6 38.84,-25.6 25.9,0 38.84,12.65 38.84,25.6 0,25.89 -12.94,38.84 -38.84,38.84z"/>
 </g>
 <g id="Capa_x0020_1_0">
  <metadata id="CorelCorpID_1Corel-Layer"/>
  <path class="fil0" d="M554.4 154.79l-12.95 0 0 -64.74c0,-51.5 -103.29,-90.05 -245.12,-90.05 -141.54,0 -257.78,38.55 -257.78,90.05l0 64.74 -12.95 0c-12.95,0 -25.6,0 -25.6,25.6l0 90.34c0,12.94 12.65,25.6 25.6,25.6l12.95 0 0 180.68c0,12.95 12.95,25.89 38.55,25.89l0 38.55c0,25.9 12.95,38.55 39.14,38.55l38.55 0c12.94,0 25.6,-12.65 25.6,-38.55l0 -38.55 218.93 0 0 38.55c0,25.9 12.95,38.55 38.84,38.55l38.85 0c12.95,0 25.89,-12.65 25.89,-38.55l0 -38.55 12.66 0c12.94,0 25.89,-12.94 25.89,-25.89l0 -180.68 12.95 0c12.95,0 25.6,-12.65 25.6,-25.6l0 -90.34c0,-25.6 -12.65,-25.6 -25.6,-25.6l0 0 0 0zm-425.51 296.32c-12.65,0 -38.84,-12.95 -38.84,-38.84 0,-12.95 26.19,-25.6 38.84,-25.6 25.9,0 38.84,12.65 38.84,25.6 0,25.89 -12.94,38.84 -38.84,38.84zm25.89 -128.89c-25.89,0 -38.55,-12.94 -38.55,-25.89l0 -141.54c0,-25.9 12.66,-38.55 38.55,-38.55l283.38 0c12.95,0 38.85,12.65 38.85,38.55l0 141.54c0,12.94 -25.9,25.89 -38.85,25.89l-283.38 0zm296.33 128.89c-12.95,0 -38.84,-12.95 -38.84,-38.84 0,-12.95 25.89,-25.6 38.84,-25.6 25.9,0 38.84,12.65 38.84,25.6 0,25.89 -12.94,38.84 -38.84,38.84z"/>
 </g>
</svg>
