<?xml version="1.0" encoding="UTF-8"?>
<!DOCTYPE svg PUBLIC "-//W3C//DTD SVG 1.1//EN" "http://www.w3.org/Graphics/SVG/1.1/DTD/svg11.dtd">
<!-- Creator: CorelDRAW X8 -->
<svg xmlns="http://www.w3.org/2000/svg" xml:space="preserve" width="60.8633mm" height="80.1138mm" version="1.1" style="shape-rendering:geometricPrecision; text-rendering:geometricPrecision; image-rendering:optimizeQuality; fill-rule:evenodd; clip-rule:evenodd"
viewBox="0 0 3282 4320"
 xmlns:xlink="http://www.w3.org/1999/xlink">
 <defs>
  <style type="text/css">
   <![CDATA[
    .fil0 {fill:none}
    .fil1 {fill:#ED3237}
    .fil3 {fill:#FEFEFE;fill-rule:nonzero}
    .fil2 {fill:#ED3237;fill-rule:nonzero}
   ]]>
  </style>
 </defs>
 <g id="Capa_x0020_1">
  <metadata id="CorelCorpID_0Corel-Layer"/>
  <rect class="fil0" width="3282" height="4320"/>
  <circle class="fil1" cx="1641" cy="1762" r="1641"/>
  <path class="fil2" d="M1292 3971c0,42 -17,78 -50,106 -33,29 -80,43 -139,43 -31,0 -59,-4 -83,-12 -25,-8 -43,-18 -56,-29 -13,-11 -25,-25 -36,-43 -10,-18 -16,-35 -16,-49 0,-15 4,-27 11,-36 8,-9 16,-13 27,-13 17,0 30,8 38,23 3,6 7,15 14,30 16,40 48,61 95,61 26,0 49,-6 69,-19 20,-12 29,-29 29,-52 0,-28 -16,-49 -49,-61 -15,-6 -38,-12 -69,-20 -32,-7 -55,-14 -71,-21 -58,-24 -87,-64 -87,-120 0,-41 16,-74 48,-98 32,-25 76,-37 131,-37 34,0 63,5 88,14 25,10 43,21 54,35 21,27 32,49 31,68 0,10 -4,20 -12,30 -8,10 -18,15 -31,15 -13,0 -22,-3 -29,-10 -6,-6 -12,-15 -17,-26 -5,-11 -9,-19 -12,-23 -16,-23 -39,-35 -68,-35 -29,0 -52,5 -69,15 -17,10 -25,23 -25,40 0,17 7,30 22,41 5,4 14,8 25,12 11,4 20,7 27,9 6,1 22,6 49,12 53,13 92,29 116,49 30,23 45,57 45,101z"/>
  <path id="1" class="fil2" d="M1452 4044c9,11 23,16 43,16 19,0 37,-5 53,-15 17,-10 28,-23 34,-40 4,-11 6,-33 6,-66 -14,6 -35,11 -65,17 -29,6 -51,12 -65,20 -14,8 -21,19 -21,32 0,14 5,26 15,36zm16 76c-41,0 -71,-10 -91,-32 -19,-21 -29,-45 -29,-72 0,-27 9,-48 26,-63 17,-15 35,-25 54,-31 19,-4 44,-10 76,-17 32,-7 60,-13 83,-20 -1,-29 -7,-47 -17,-56 -9,-8 -25,-13 -47,-13 -40,0 -67,12 -79,35 -5,9 -9,15 -11,19 -2,4 -6,8 -12,11 -5,4 -12,6 -20,6 -9,0 -17,-3 -24,-10 -8,-6 -12,-15 -12,-28 0,-13 5,-26 15,-39 28,-37 72,-55 132,-54 39,0 69,3 91,10 37,11 60,35 69,73 3,16 5,36 4,59l-2 84c-1,26 2,47 8,63 6,17 9,30 9,39 0,9 -4,17 -12,25 -8,7 -18,11 -28,11 -18,0 -37,-17 -57,-52 -44,35 -86,52 -126,52z"/>
  <path id="2" class="fil2" d="M1855 3697l0 349c0,19 0,32 -2,40 -1,8 -5,16 -13,23 -7,7 -17,11 -29,11 -12,0 -22,-4 -30,-11 -7,-7 -12,-15 -13,-23 -1,-8 -2,-21 -2,-40l0 -349c0,-18 1,-32 2,-39 1,-8 5,-15 10,-20 9,-9 19,-14 32,-14 13,0 23,4 31,12 8,7 12,17 13,27 1,10 1,22 1,34z"/>
  <path id="3" class="fil2" d="M2037 3830l0 216c0,23 -1,38 -3,45 -3,6 -5,12 -9,15 -10,9 -20,14 -33,14 -12,0 -21,-4 -29,-11 -7,-7 -12,-15 -13,-23 -2,-8 -2,-21 -2,-40l0 -216c0,-23 1,-38 3,-45 2,-6 5,-11 9,-15 10,-9 20,-13 30,-13 10,0 19,2 26,6 7,5 12,10 16,18 3,7 5,24 5,49zm-1 -158c0,12 -5,22 -13,30 -9,9 -19,13 -31,13 -11,0 -21,-4 -30,-12 -9,-9 -13,-19 -13,-30 0,-12 4,-22 13,-31 9,-9 19,-13 30,-13 12,0 22,4 31,13 8,9 13,19 13,30z"/>
  <path id="4" class="fil2" d="M2129 4046l0 -229c0,-40 15,-60 44,-60 27,0 42,18 43,56 6,-12 12,-21 16,-27 5,-6 13,-12 23,-19 23,-14 53,-13 90,3 20,8 29,21 29,38 0,11 -3,20 -11,27 -7,7 -14,10 -21,10 -7,0 -17,-1 -29,-5 -12,-4 -24,-6 -35,-6 -11,0 -21,4 -30,12 -20,18 -30,66 -30,145l0 52c0,28 -2,46 -5,53 -4,7 -9,13 -16,18 -7,4 -15,7 -23,6 -9,1 -17,-1 -24,-6 -7,-4 -13,-10 -16,-18 -4,-7 -5,-24 -5,-50z"/>
  <path class="fil3" d="M1235 2541c-32,25 -72,38 -120,38 -49,0 -91,-16 -125,-47 -35,-31 -52,-69 -52,-114 0,-44 28,-103 82,-177l363 -521 -322 -434c-55,-74 -83,-134 -83,-180 0,-46 17,-85 51,-115 34,-30 77,-45 127,-45 49,0 90,13 122,41 31,25 66,67 105,125l256 355 257 -355c42,-60 78,-103 108,-128 32,-26 73,-38 122,-38 50,0 92,15 127,47 34,29 51,66 51,110 0,44 -29,105 -87,183l-321 434 360 521c58,82 88,144 88,186 0,43 -18,78 -55,108 -36,29 -75,44 -116,44 -41,0 -79,-11 -114,-33 -36,-21 -77,-65 -125,-133l-295 -425 -294 425c-42,60 -79,102 -110,128z"/>
 </g>
</svg>
