<?xml version="1.0" encoding="UTF-8"?>
<!DOCTYPE svg PUBLIC "-//W3C//DTD SVG 1.1//EN" "http://www.w3.org/Graphics/SVG/1.1/DTD/svg11.dtd">
<!-- Creator: CorelDRAW 2019 (64-Bit Versión de evaluación) -->
<svg xmlns="http://www.w3.org/2000/svg" xml:space="preserve" width="235px" height="235px" version="1.1" style="shape-rendering:geometricPrecision; text-rendering:geometricPrecision; image-rendering:optimizeQuality; fill-rule:evenodd; clip-rule:evenodd"
viewBox="0 0 24.97 24.97"
 xmlns:xlink="http://www.w3.org/1999/xlink">
 <defs>
  <style type="text/css">
   <![CDATA[
    .fil1 {fill:#FEFEFE}
    .fil0 {fill:#F48884}
   ]]>
  </style>
 </defs>
 <g id="Capa_x0020_1">
  <metadata id="CorelCorpID_0Corel-Layer"/>
  <path class="fil0" d="M4.81 0l15.34 0c2.63,0 4.82,2.19 4.82,4.81l0 15.34c0,2.63 -2.19,4.82 -4.82,4.82l-15.34 0c-2.62,0 -4.81,-2.19 -4.81,-4.82l0 -15.34c0,-2.62 2.19,-4.81 4.81,-4.81z"/>
  <path class="fil1" d="M21.47 7.89l-0.44 0 0 -2.2c0,-1.75 -3.51,-3.06 -8.33,-3.06 -4.81,0 -8.76,1.31 -8.76,3.06l0 2.2 -0.44 0c-0.44,0 -0.87,0 -0.87,0.87l0 3.07c0,0.44 0.43,0.87 0.87,0.87l0.44 0 0 6.14c0,0.44 0.44,0.88 1.31,0.88l0 1.31c0,0.88 0.44,1.31 1.33,1.31l1.31 0c0.44,0 0.87,-0.43 0.87,-1.31l0 -1.31 7.44 0 0 1.31c0,0.88 0.44,1.31 1.32,1.31l1.32 0c0.44,0 0.88,-0.43 0.88,-1.31l0 -1.31 0.43 0c0.44,0 0.88,-0.44 0.88,-0.88l0 -6.14 0.44 0c0.44,0 0.87,-0.43 0.87,-0.87l0 -3.07c0,-0.87 -0.43,-0.87 -0.87,-0.87l0 0zm-14.46 10.07c-0.43,0 -1.32,-0.44 -1.32,-1.32 0,-0.44 0.89,-0.87 1.32,-0.87 0.88,0 1.32,0.43 1.32,0.87 0,0.88 -0.44,1.32 -1.32,1.32zm0.88 -4.38c-0.88,0 -1.31,-0.44 -1.31,-0.88l0 -4.81c0,-0.88 0.43,-1.31 1.31,-1.31l9.63 0c0.44,0 1.32,0.43 1.32,1.31l0 4.81c0,0.44 -0.88,0.88 -1.32,0.88l-9.63 0zm10.07 4.38c-0.44,0 -1.32,-0.44 -1.32,-1.32 0,-0.44 0.88,-0.87 1.32,-0.87 0.88,0 1.32,0.43 1.32,0.87 0,0.88 -0.44,1.32 -1.32,1.32z"/>
 </g>
 <g id="Capa_x0020_1_0">
  <metadata id="CorelCorpID_1Corel-Layer"/>
  <path class="fil1" d="M21.47 7.89l-0.44 0 0 -2.2c0,-1.75 -3.51,-3.06 -8.33,-3.06 -4.81,0 -8.76,1.31 -8.76,3.06l0 2.2 -0.44 0c-0.44,0 -0.87,0 -0.87,0.87l0 3.07c0,0.44 0.43,0.87 0.87,0.87l0.44 0 0 6.14c0,0.44 0.44,0.88 1.31,0.88l0 1.31c0,0.88 0.44,1.31 1.33,1.31l1.31 0c0.44,0 0.87,-0.43 0.87,-1.31l0 -1.31 7.44 0 0 1.31c0,0.88 0.44,1.31 1.32,1.31l1.32 0c0.44,0 0.88,-0.43 0.88,-1.31l0 -1.31 0.43 0c0.44,0 0.88,-0.44 0.88,-0.88l0 -6.14 0.44 0c0.44,0 0.87,-0.43 0.87,-0.87l0 -3.07c0,-0.87 -0.43,-0.87 -0.87,-0.87l0 0zm-14.46 10.07c-0.43,0 -1.32,-0.44 -1.32,-1.32 0,-0.44 0.89,-0.87 1.32,-0.87 0.88,0 1.32,0.43 1.32,0.87 0,0.88 -0.44,1.32 -1.32,1.32zm0.88 -4.38c-0.88,0 -1.31,-0.44 -1.31,-0.88l0 -4.81c0,-0.88 0.43,-1.31 1.31,-1.31l9.63 0c0.44,0 1.32,0.43 1.32,1.31l0 4.81c0,0.44 -0.88,0.88 -1.32,0.88l-9.63 0zm10.07 4.38c-0.44,0 -1.32,-0.44 -1.32,-1.32 0,-0.44 0.88,-0.87 1.32,-0.87 0.88,0 1.32,0.43 1.32,0.87 0,0.88 -0.44,1.32 -1.32,1.32z"/>
 </g>
</svg>
