<?xml version="1.0" encoding="UTF-8"?>
<!DOCTYPE svg PUBLIC "-//W3C//DTD SVG 1.1//EN" "http://www.w3.org/Graphics/SVG/1.1/DTD/svg11.dtd">
<!-- Creator: CorelDRAW 2019 (64-Bit) -->
<svg xmlns="http://www.w3.org/2000/svg" xml:space="preserve" width="719px" height="719px" version="1.1" style="shape-rendering:geometricPrecision; text-rendering:geometricPrecision; image-rendering:optimizeQuality; fill-rule:evenodd; clip-rule:evenodd"
viewBox="0 0 227.35 227.35"
 xmlns:xlink="http://www.w3.org/1999/xlink">
 <defs>
  <style type="text/css">
   <![CDATA[
    .fil0 {fill:#EC268F}
    .fil1 {fill:#FEFEFE;fill-rule:nonzero}
   ]]>
  </style>
 </defs>
 <g id="Capa_x0020_1">
  <metadata id="CorelCorpID_0Corel-Layer"/>
  <circle class="fil0" cx="113.68" cy="113.68" r="113.68"/>
  <path class="fil1" d="M102.45 161.55c2.96,-2.81 6.55,-4.21 10.76,-4.21 4.21,0 7.64,1.4 9.98,4.21 2.34,2.8 3.58,6.08 3.58,9.98 0,4.05 -1.4,7.33 -4.21,10.13 -2.8,2.81 -6.23,4.21 -10.13,4.37 -4.06,0 -7.33,-1.41 -10.14,-4.21 -2.81,-2.81 -4.21,-6.24 -4.21,-10.14 0,-4.05 1.4,-7.33 4.37,-10.13l0 0zm9.82 -13.1c-8.11,0 -12.16,-4.52 -12.47,-13.88 0,-4.99 1.24,-9.82 3.43,-14.35 2.34,-4.36 4.68,-7.95 7.33,-10.44 2.49,-2.5 6.39,-6.08 11.54,-10.45 5.3,-4.37 8.73,-7.95 10.6,-10.76 1.71,-2.81 2.49,-6.24 2.49,-10.29 0,-4.06 -1.87,-7.95 -5.45,-11.54 -3.75,-3.59 -8.11,-5.3 -13.1,-5.3 -9.2,0 -15.6,2.34 -18.87,7.17 -2.18,3.27 -4.37,7.8 -6.55,13.57 -2.34,7.17 -6.55,10.76 -12.63,10.76 -3.43,0 -6.39,-1.25 -8.89,-3.75 -2.49,-2.65 -3.58,-5.14 -3.58,-7.64 0,-5.92 1.55,-11.38 4.67,-16.37 3.28,-5.15 6.55,-9.2 9.83,-12.32 3.43,-3.12 8.26,-5.77 14.19,-8.11 6.08,-2.18 12.94,-3.27 20.42,-3.27 13.88,0 24.95,3.74 33.37,11.07 8.42,7.48 12.63,16.37 12.63,26.66 0,7.18 -1.71,12.95 -5.14,17.62 -3.28,4.68 -10.6,12.01 -21.83,22.3 -3.59,3.59 -5.77,6.39 -6.86,8.58 -0.94,2.18 -1.87,5.77 -2.97,10.91 -1.55,6.55 -5.61,9.83 -12.16,9.83l0 0z"/>
 </g>
</svg>
