<?xml version="1.0" encoding="UTF-8"?>
<!DOCTYPE svg PUBLIC "-//W3C//DTD SVG 1.1//EN" "http://www.w3.org/Graphics/SVG/1.1/DTD/svg11.dtd">
<!-- Creator: CorelDRAW X8 -->
<svg xmlns="http://www.w3.org/2000/svg" xml:space="preserve" width="2474px" height="754px" version="1.1" style="shape-rendering:geometricPrecision; text-rendering:geometricPrecision; image-rendering:optimizeQuality; fill-rule:evenodd; clip-rule:evenodd"
viewBox="0 0 2053 626"
 xmlns:xlink="http://www.w3.org/1999/xlink">
 <defs>
  <style type="text/css">
   <![CDATA[
    .fil3 {fill:#FEFEFE}
    .fil2 {fill:#FFF212}
    .fil0 {fill:#ED3237}
    .fil1 {fill:#00AFEF}
    .fil5 {fill:#373435;fill-rule:nonzero}
    .fil6 {fill:#ED3237;fill-rule:nonzero}
    .fil4 {fill:#00AFEF;fill-rule:nonzero}
   ]]>
  </style>
 </defs>
 <g id="Capa_x0020_1">
  <metadata id="CorelCorpID_0Corel-Layer"/>
  <path class="fil0" d="M522 127c26,15 41,40 41,70l0 116 0 115c0,30 -15,56 -41,71l-100 58 -100 57c-26,15 -55,15 -81,0l-100 -57c281,0 251,-421 381,-430z"/>
  <path class="fil1" d="M322 11l100 58 50 29c-164,46 -138,329 -472,330l0 -115 0 -116c0,-30 15,-55 41,-70l100 -58 100 -58c26,-15 55,-15 81,0z"/>
  <path class="fil2" d="M522 127c-130,9 -100,430 -381,430l-100 -58c-26,-15 -41,-41 -41,-71 334,-1 308,-284 472,-330l50 29z"/>
  <path class="fil3" d="M359 238l-5 0 0 -30c0,-27 -62,-49 -139,-49 -77,0 -139,22 -139,49l0 30 -5 0c-8,0 -14,7 -14,15l0 50c0,8 6,14 14,14l5 0 0 99c0,11 9,20 20,20l0 20c0,11 9,20 20,20l20 0c11,0 20,-9 20,-20l0 -20 118 0 0 20c0,11 9,20 20,20l20 0c11,0 20,-9 20,-20l0 -20 4 0c10,0 16,-8 16,-16l0 -103 5 0c8,0 15,-6 15,-14l0 -50c0,-8 -7,-15 -15,-15z"/>
  <path class="fil2" d="M304 407c-11,0 -20,-9 -20,-20 0,-11 9,-20 20,-20 11,0 20,9 20,20 0,11 -9,20 -20,20z"/>
  <path class="fil2" d="M136 337c-11,0 -20,-9 -20,-20l0 -79c0,-11 9,-20 20,-20l158 0c11,0 20,9 20,20l0 79c0,11 -9,20 -20,20l-158 0z"/>
  <path class="fil2" d="M126 407c-11,0 -20,-9 -20,-20 0,-11 9,-20 20,-20 11,0 20,9 20,20 0,11 -9,20 -20,20z"/>
  <path class="fil4" d="M701 258l-30 0 0 43 29 0c13,0 22,-2 27,-5 2,-1 4,-4 6,-7 2,-3 3,-6 3,-10 0,-9 -3,-15 -10,-18 -4,-2 -12,-3 -25,-3zm-30 66l0 44c0,10 -1,16 -3,20 -2,4 -7,6 -13,6 -8,0 -13,-4 -15,-12 0,-3 -1,-8 -1,-14l0 -108c0,-8 1,-13 1,-15 0,-3 2,-5 4,-7 2,-3 5,-4 7,-5 3,0 8,0 15,0l45 0c17,0 29,2 37,7 14,8 21,20 21,37 0,6 -1,12 -4,17 -2,5 -5,9 -7,12 -7,6 -16,11 -30,14 11,6 21,17 30,32 9,15 13,24 13,28 0,4 -1,8 -4,10 -3,3 -6,4 -10,4 -3,0 -6,0 -8,-1 -3,-1 -6,-5 -10,-10 -1,-2 -3,-5 -6,-9l-13 -22c-7,-12 -14,-20 -18,-23 -5,-4 -12,-5 -19,-5l-12 0z"/>
  <path id="1" class="fil5" d="M796 350l0 -52c0,-7 0,-12 1,-15 1,-2 2,-4 3,-5 3,-3 7,-4 11,-4 3,0 7,1 10,4 3,3 4,10 4,21l0 41c0,10 2,17 4,22 4,6 9,9 16,9 5,0 9,-1 14,-4 4,-2 7,-5 9,-10 3,-4 4,-14 4,-29l0 -30c0,-11 1,-17 4,-20 3,-3 6,-4 10,-4 4,0 8,1 11,4 2,2 3,4 3,7 1,3 1,7 1,13l0 73c0,9 0,14 -2,16 -2,5 -6,7 -12,7 -9,0 -14,-7 -14,-20 -7,10 -15,16 -24,18 -12,4 -23,3 -34,-2 -13,-6 -19,-19 -19,-40z"/>
  <path id="2" class="fil5" d="M998 380c0,10 -11,14 -33,14 -4,0 -9,-1 -13,-2 -4,-2 -7,-4 -9,-6 -2,-2 -4,-5 -5,-9 -1,-4 -2,-8 -2,-11 0,-2 0,-6 0,-11l0 -57 -4 0c-6,0 -10,-2 -11,-4 -2,-3 -2,-6 -2,-7 0,-7 4,-11 13,-11l4 0 0 -18c0,-9 0,-14 2,-17 2,-5 7,-7 12,-7 6,0 10,2 13,7 1,3 2,8 2,15l0 20 6 0c7,0 11,1 13,2 3,2 5,5 5,9 0,7 -6,11 -18,11l-6 0 0 56c0,6 1,10 1,12 1,2 2,4 3,4 4,2 7,2 11,1 4,-1 8,-2 10,-2 2,0 4,1 6,3 2,3 2,5 2,8z"/>
  <path id="3" class="fil5" d="M1037 369c3,4 8,5 14,5 7,0 13,-1 18,-5 5,-3 9,-7 11,-13 1,-4 2,-11 2,-22 -4,2 -11,4 -21,6 -10,2 -17,4 -22,7 -4,2 -7,6 -7,10 0,5 2,9 5,12zm5 25c-13,0 -23,-3 -30,-10 -6,-7 -9,-15 -9,-24 0,-9 3,-16 8,-21 6,-5 12,-8 18,-10 6,-2 15,-4 25,-6 11,-2 20,-4 28,-6 -1,-10 -3,-16 -6,-19 -3,-3 -8,-4 -15,-4 -14,0 -22,4 -26,11 -2,3 -3,5 -4,7 -1,1 -2,2 -4,3 -2,1 -4,2 -7,2 -3,0 -5,-1 -8,-3 -2,-2 -4,-5 -4,-9 0,-5 2,-9 5,-14 10,-11 24,-17 44,-17 13,0 23,1 30,3 12,4 20,12 23,24 1,6 1,12 1,20l0 27c-1,9 0,16 2,22 2,5 3,9 3,12 0,3 -1,6 -4,9 -3,2 -6,3 -9,3 -6,0 -12,-5 -19,-17 -14,12 -28,17 -42,17z"/>
  <path id="4" class="fil5" d="M1236 355c0,13 -4,23 -14,30 -9,6 -22,9 -37,9 -8,0 -15,-1 -21,-2 -10,-3 -18,-8 -23,-15 -4,-5 -6,-9 -6,-13 0,-4 1,-7 4,-10 2,-2 5,-3 9,-3 4,0 7,1 9,4 1,1 2,2 3,5 2,2 3,4 4,6 2,2 5,3 9,5 4,2 9,3 15,3 6,0 10,-1 14,-4 4,-2 6,-5 6,-8 0,-4 -1,-6 -2,-8 -3,-4 -10,-7 -20,-10 -10,-2 -19,-4 -25,-7 -6,-2 -11,-5 -14,-7 -3,-2 -5,-5 -7,-9 -3,-3 -4,-7 -4,-11 0,-7 3,-15 9,-22 3,-4 7,-8 14,-10 7,-3 15,-4 24,-4 15,0 27,3 35,9 8,6 12,13 12,19 0,3 -1,5 -3,8 -2,2 -4,3 -7,3 -3,0 -5,0 -6,0 -3,-1 -7,-4 -11,-10 -5,-6 -12,-9 -20,-9 -5,0 -9,1 -13,2 -4,2 -6,5 -6,9 0,4 2,7 7,9 4,3 13,5 26,8 26,7 39,18 39,33z"/>
  <path id="5" class="fil5" d="M1437 369c3,4 8,5 14,5 7,0 13,-1 18,-5 6,-3 9,-7 11,-13 1,-4 2,-11 2,-22 -4,2 -11,4 -21,6 -10,2 -17,4 -22,7 -4,2 -7,6 -7,10 0,5 2,9 5,12zm5 25c-13,0 -23,-3 -30,-10 -6,-7 -9,-15 -9,-24 0,-9 3,-16 8,-21 6,-5 12,-8 18,-10 7,-2 15,-4 25,-6 11,-2 20,-4 28,-6 -1,-10 -2,-16 -6,-19 -3,-3 -8,-4 -15,-4 -14,0 -22,4 -26,11 -2,3 -3,5 -4,7 -1,1 -2,2 -4,3 -2,1 -4,2 -7,2 -3,0 -5,-1 -8,-3 -2,-2 -4,-5 -4,-9 0,-5 2,-9 6,-14 9,-11 23,-17 43,-17 13,0 23,1 30,3 13,4 20,12 23,24 1,6 2,12 1,20l0 27c-1,9 0,16 2,22 2,5 3,9 3,12 0,3 -1,6 -4,9 -2,2 -6,3 -9,3 -6,0 -12,-5 -19,-17 -14,12 -28,17 -42,17z"/>
  <path id="6" class="fil5" d="M1578 363c6,6 12,9 20,9 7,0 14,-3 19,-9 6,-6 9,-16 9,-28 0,-13 -2,-23 -8,-29 -5,-6 -12,-9 -20,-9 -8,0 -15,3 -20,10 -6,7 -9,17 -9,29 0,11 3,20 9,27zm-10 14c0,12 -5,17 -15,17 -4,0 -7,-1 -10,-3 -2,-2 -3,-5 -4,-7 0,-3 -1,-7 -1,-13l0 -116c0,-8 1,-13 2,-16 0,-3 2,-5 5,-7 2,-1 5,-2 7,-2 6,0 9,1 11,4 2,3 3,6 3,10 1,3 2,7 2,10l0 38c3,-3 6,-6 9,-8 2,-2 6,-4 12,-7 5,-2 11,-3 18,-3 16,0 28,6 36,17 8,11 13,26 13,43 0,17 -5,31 -13,43 -9,11 -21,17 -36,17 -11,0 -19,-2 -26,-7 -3,-2 -5,-4 -7,-6 -2,-2 -4,-4 -6,-7l0 3z"/>
  <path id="7" class="fil5" d="M1708 369c3,4 7,5 14,5 6,0 12,-1 18,-5 5,-3 9,-7 11,-13 1,-4 2,-11 2,-22 -5,2 -12,4 -22,6 -10,2 -17,4 -21,7 -5,2 -7,6 -7,10 0,5 1,9 5,12zm5 25c-14,0 -24,-3 -30,-10 -6,-7 -10,-15 -10,-24 0,-9 3,-16 9,-21 6,-5 12,-8 18,-10 6,-2 14,-4 25,-6 11,-2 20,-4 27,-6 0,-10 -2,-16 -5,-19 -3,-3 -8,-4 -16,-4 -13,0 -22,4 -26,11 -2,3 -3,5 -4,7 0,1 -2,2 -3,3 -2,1 -5,2 -7,2 -3,0 -6,-1 -8,-3 -3,-2 -4,-5 -4,-9 0,-5 2,-9 5,-14 9,-11 24,-17 44,-17 13,0 23,1 30,3 12,4 20,12 22,24 2,6 2,12 2,20l-1 27c0,9 1,16 3,22 2,5 3,9 3,12 0,3 -2,6 -4,9 -3,2 -6,3 -9,3 -6,0 -13,-5 -19,-17 -15,12 -29,17 -42,17z"/>
  <path id="8" class="fil5" d="M1916 321l0 49c0,7 0,12 -1,14 -1,3 -2,5 -3,6 -3,3 -7,4 -11,4 -4,0 -7,-1 -10,-4 -3,-3 -5,-10 -5,-20l0 -43c0,-11 -1,-19 -4,-23 -3,-5 -9,-7 -16,-7 -4,0 -8,1 -12,3 -7,4 -12,11 -13,20 -1,4 -1,10 -1,19l0 31c0,7 0,12 -1,14 -1,3 -2,5 -3,6 -3,3 -7,4 -11,4 -3,0 -7,-1 -10,-4 -3,-3 -4,-6 -4,-11 0,-2 0,-5 0,-9l0 -73c0,-7 0,-12 1,-14 0,-2 1,-4 3,-5 2,-3 6,-4 11,-4 4,0 8,2 10,5 1,3 2,8 2,15 11,-14 23,-20 38,-20 15,0 26,5 34,17 4,6 6,16 6,30z"/>
  <path id="9" class="fil5" d="M1973 369c3,4 8,5 15,5 6,0 12,-1 17,-5 6,-3 9,-7 11,-13 2,-4 2,-11 2,-22 -4,2 -11,4 -21,6 -10,2 -17,4 -22,7 -4,2 -6,6 -6,10 0,5 1,9 4,12zm6 25c-14,0 -24,-3 -30,-10 -7,-7 -10,-15 -10,-24 0,-9 3,-16 9,-21 5,-5 11,-8 18,-10 6,-2 14,-4 25,-6 10,-2 19,-4 27,-6 0,-10 -2,-16 -5,-19 -4,-3 -9,-4 -16,-4 -13,0 -22,4 -26,11 -2,3 -3,5 -4,7 -1,1 -2,2 -4,3 -2,1 -4,2 -7,2 -2,0 -5,-1 -7,-3 -3,-2 -4,-5 -4,-9 0,-5 1,-9 5,-14 9,-11 23,-17 43,-17 13,0 23,1 30,3 13,4 20,12 23,24 1,6 2,12 2,20l-1 27c0,9 1,16 3,22 2,5 3,9 3,12 0,3 -2,6 -5,9 -2,2 -5,3 -9,3 -6,0 -12,-5 -19,-17 -14,12 -28,17 -41,17z"/>
  <path id="10" class="fil6" d="M1384 345c0,14 -5,26 -16,35 -11,9 -27,14 -46,14 -11,0 -20,-1 -28,-4 -8,-2 -14,-6 -18,-9 -5,-4 -9,-9 -12,-15 -4,-6 -5,-11 -5,-16 0,-5 1,-9 3,-12 3,-3 6,-4 9,-4 6,0 10,2 13,8 1,1 2,5 4,9 6,14 16,21 32,21 8,0 16,-2 22,-6 7,-4 10,-10 10,-18 0,-9 -5,-16 -16,-20 -5,-2 -13,-4 -23,-7 -10,-2 -18,-4 -23,-6 -19,-8 -29,-22 -29,-40 0,-14 5,-25 16,-33 10,-8 25,-12 43,-12 11,0 21,2 29,5 8,3 14,7 18,11 7,9 11,17 10,23 0,3 -1,7 -4,10 -2,3 -6,5 -10,5 -4,0 -7,-1 -9,-4 -2,-2 -4,-5 -6,-8 -2,-4 -3,-6 -4,-8 -5,-7 -13,-11 -23,-11 -9,0 -17,1 -22,5 -6,3 -9,7 -9,13 0,5 3,10 7,13 2,2 5,3 9,4 4,2 7,3 9,3 2,1 7,2 16,4 17,4 30,10 38,16 10,8 15,19 15,34z"/>
 </g>
</svg>
