<?xml version="1.0" encoding="UTF-8"?>
<!DOCTYPE svg PUBLIC "-//W3C//DTD SVG 1.1//EN" "http://www.w3.org/Graphics/SVG/1.1/DTD/svg11.dtd">
<!-- Creator: CorelDRAW X8 -->
<svg xmlns="http://www.w3.org/2000/svg" xml:space="preserve" width="719px" height="946px" version="1.1" style="shape-rendering:geometricPrecision; text-rendering:geometricPrecision; image-rendering:optimizeQuality; fill-rule:evenodd; clip-rule:evenodd"
viewBox="0 0 1016 1338"
 xmlns:xlink="http://www.w3.org/1999/xlink">
 <defs>
  <style type="text/css">
   <![CDATA[
    .fil3 {fill:none}
    .fil2 {fill:#FEFEFE}
    .fil0 {fill:#00A859}
    .fil1 {fill:#00A859;fill-rule:nonzero}
   ]]>
  </style>
 </defs>
 <g id="Capa_x0020_1">
  <metadata id="CorelCorpID_0Corel-Layer"/>
  <circle class="fil0" cx="508" cy="546" r="508"/>
  <path class="fil1" d="M261 1252c0,6 0,10 -1,13 0,2 -1,5 -4,7 -2,3 -6,4 -10,4 -4,0 -7,-1 -9,-4 -2,-2 -4,-4 -4,-7 0,-3 -1,-7 -1,-13l0 -113c0,-9 2,-14 5,-17 3,-3 8,-4 15,-4l10 0c9,0 14,1 17,3 2,3 4,8 7,18l21 79 21 -79c2,-10 5,-15 7,-18 3,-2 8,-3 16,-3l10 0c8,0 13,2 16,5 3,3 4,8 4,16l0 113c0,7 0,12 -1,14 0,2 -1,4 -2,5 -4,3 -7,5 -11,5 -4,0 -7,-1 -10,-4 -2,-2 -3,-4 -4,-7 0,-3 -1,-7 -1,-13l0 -101 -24 99c-3,11 -6,18 -9,21 -3,3 -7,5 -12,5 -6,0 -10,-2 -13,-4 -3,-3 -6,-11 -9,-22l-24 -99 0 101z"/>
  <path id="1" class="fil1" d="M439 1251c3,4 8,5 14,5 6,0 12,-1 17,-4 6,-3 9,-8 11,-13 1,-4 2,-11 2,-22 -4,2 -11,4 -21,6 -9,2 -16,4 -21,6 -4,3 -6,6 -6,11 0,4 1,8 4,11zm5 25c-13,0 -23,-3 -29,-10 -6,-7 -9,-15 -9,-24 0,-8 3,-15 8,-20 6,-5 11,-8 18,-10 6,-1 14,-3 24,-5 10,-3 19,-5 27,-7 -1,-9 -2,-15 -6,-18 -3,-3 -8,-4 -15,-4 -13,0 -21,4 -25,11 -2,3 -3,5 -4,6 -1,2 -2,3 -4,4 -1,1 -4,2 -6,2 -3,0 -6,-1 -8,-3 -3,-2 -4,-5 -4,-10 0,-4 2,-8 5,-12 9,-12 23,-18 43,-18 12,0 22,1 29,4 12,3 19,11 22,23 1,5 2,12 2,19l-1 27c0,9 1,15 3,21 1,5 2,9 2,12 0,3 -1,6 -4,8 -2,3 -5,4 -9,4 -5,0 -12,-6 -18,-17 -14,11 -28,17 -41,17z"/>
  <path id="2" class="fil1" d="M639 1176c9,11 13,25 13,42 0,16 -4,30 -12,41 -8,11 -20,17 -36,17 -6,0 -12,-1 -17,-4 -6,-2 -10,-4 -12,-6 -3,-2 -5,-5 -9,-8l0 38c0,10 -1,16 -3,19 -2,2 -6,4 -11,4 -7,0 -11,-3 -13,-10 -1,-2 -1,-7 -1,-14l0 -114c0,-7 0,-11 0,-13 1,-3 3,-5 5,-7 2,-2 5,-2 9,-2 10,0 14,5 14,16l0 3c3,-4 6,-7 8,-9 3,-2 6,-4 12,-7 5,-2 11,-3 18,-3 15,0 27,5 35,17zm-43 5c-7,0 -13,3 -19,9 -6,6 -8,14 -8,26 0,11 2,21 7,28 5,6 12,10 20,10 8,0 15,-3 20,-9 5,-6 7,-16 7,-28 0,-12 -3,-22 -8,-28 -6,-5 -12,-8 -19,-8z"/>
  <path id="3" class="fil1" d="M703 1251c3,4 8,5 14,5 6,0 12,-1 17,-4 5,-3 9,-8 11,-13 1,-4 2,-11 2,-22 -4,2 -11,4 -21,6 -9,2 -17,4 -21,6 -4,3 -7,6 -7,11 0,4 2,8 5,11zm5 25c-13,0 -23,-3 -29,-10 -6,-7 -9,-15 -9,-24 0,-8 2,-15 8,-20 6,-5 11,-8 17,-10 6,-1 15,-3 25,-5 10,-3 19,-5 27,-7 -1,-9 -3,-15 -6,-18 -3,-3 -8,-4 -15,-4 -13,0 -21,4 -25,11 -2,3 -3,5 -4,6 -1,2 -2,3 -4,4 -2,1 -4,2 -7,2 -2,0 -5,-1 -7,-3 -3,-2 -4,-5 -4,-10 0,-4 2,-8 5,-12 9,-12 23,-18 43,-18 12,0 22,1 29,4 12,3 19,11 22,23 1,5 2,12 1,19l0 27c0,9 0,15 2,21 2,5 3,9 3,12 0,3 -1,6 -4,8 -2,3 -5,4 -9,4 -6,0 -12,-6 -18,-17 -14,11 -28,17 -41,17z"/>
  <path class="fil2" d="M200 398l0 370c0,12 12,21 24,16l147 -67 0 -411 -149 60c-13,5 -22,18 -22,32l0 0zm205 319l206 68 0 -410 -206 -69 0 411zm388 -410l-148 68 0 410 150 -60c13,-5 21,-17 21,-31l0 -371c0,-12 -12,-20 -23,-16z"/>
  <rect class="fil3" width="1016" height="1338"/>
 </g>
</svg>
