<?xml version="1.0" encoding="UTF-8"?>
<!DOCTYPE svg PUBLIC "-//W3C//DTD SVG 1.1//EN" "http://www.w3.org/Graphics/SVG/1.1/DTD/svg11.dtd">
<!-- Creator: CorelDRAW 2019 (64-Bit) -->
<svg xmlns="http://www.w3.org/2000/svg" xml:space="preserve" width="719px" height="719px" version="1.1" style="shape-rendering:geometricPrecision; text-rendering:geometricPrecision; image-rendering:optimizeQuality; fill-rule:evenodd; clip-rule:evenodd"
viewBox="0 0 731.77 731.77"
 xmlns:xlink="http://www.w3.org/1999/xlink">
 <defs>
  <style type="text/css">
   <![CDATA[
    .fil0 {fill:#F58634}
    .fil1 {fill:#FEFEFE}
   ]]>
  </style>
 </defs>
 <g id="Capa_x0020_1">
  <metadata id="CorelCorpID_0Corel-Layer"/>
  <circle class="fil0" cx="365.89" cy="365.89" r="365.89"/>
  <path id="map-marker-alt.svg" class="fil1" d="M347.02 590.32c-132.02,-192.37 -156.53,-213.12 -156.53,-282.9 0,-96.19 77.32,-175.4 175.4,-175.4 96.18,0 173.51,79.21 173.51,175.4 0,69.78 -24.52,90.53 -156.54,282.9 -9.43,11.32 -26.4,11.32 -35.83,0l-0.01 0zm18.87 -209.34c39.6,0 71.66,-33.95 71.66,-73.56 0,-39.61 -32.06,-73.55 -71.66,-73.55 -41.5,0 -73.56,33.94 -73.56,73.55 0,39.61 32.06,73.56 73.56,73.56z"/>
 </g>
</svg>
