<?xml version="1.0" encoding="UTF-8"?>
<!DOCTYPE svg PUBLIC "-//W3C//DTD SVG 1.1//EN" "http://www.w3.org/Graphics/SVG/1.1/DTD/svg11.dtd">
<!-- Creator: CorelDRAW 2019 (64-Bit) -->
<svg xmlns="http://www.w3.org/2000/svg" xml:space="preserve" width="719px" height="719px" version="1.1" style="shape-rendering:geometricPrecision; text-rendering:geometricPrecision; image-rendering:optimizeQuality; fill-rule:evenodd; clip-rule:evenodd"
viewBox="0 0 719.49 719.49"
 xmlns:xlink="http://www.w3.org/1999/xlink">
 <defs>
  <style type="text/css">
   <![CDATA[
    .fil0 {fill:#00AFEF}
    .fil1 {fill:#FEFEFE}
   ]]>
  </style>
 </defs>
 <g id="Capa_x0020_1">
  <metadata id="CorelCorpID_0Corel-Layer"/>
  <circle class="fil0" cx="359.75" cy="359.75" r="359.75"/>
  <path class="fil1" d="M567.5 245.26l-6.91 0 0 -42.93c0,-40.47 -89.32,-72.05 -200.84,-72.05 -112.02,0 -200.85,31.58 -200.85,72.05l0 42.93 -7.4 0c-11.85,0 -21.22,9.38 -21.22,21.71l0 71.56c0,11.84 9.37,21.22 21.22,21.22l7.4 0 0 143.6c0,15.79 12.83,28.62 28.62,28.62l0 28.62c0,16.29 12.83,29.12 28.62,29.12l28.62 0c15.79,0 28.62,-12.83 28.62,-29.12l0 -28.62 172.23 0 0 28.62c0,16.29 12.83,29.12 28.62,29.12l28.62 0c15.79,0 28.62,-12.83 28.62,-29.12l0 -28.62 5.93 0c14.31,0 23.19,-11.35 23.19,-22.7l0 -149.52 6.91 0c11.84,0 21.71,-9.38 21.71,-21.22l0 -71.56c0,-12.33 -9.87,-21.71 -21.71,-21.71l0 0zm-337.05 243.78c-15.79,0 -28.62,-12.83 -28.62,-28.62 0,-15.79 12.83,-28.62 28.62,-28.62 15.8,0 28.63,12.83 28.63,28.62 0,15.79 -12.83,28.62 -28.63,28.62zm14.32 -100.18c-15.8,0 -28.63,-12.83 -28.63,-29.11l0 -114.49c0,-15.79 12.83,-28.62 28.63,-28.62l229.46 0c15.8,0 28.63,12.83 28.63,28.62l0 114.49c0,16.28 -12.83,29.11 -28.63,29.11l-229.46 0zm243.78 100.18c-15.8,0 -28.63,-12.83 -28.63,-28.62 0,-15.79 12.83,-28.62 28.63,-28.62 15.79,0 28.62,12.83 28.62,28.62 0,15.79 -12.83,28.62 -28.62,28.62z"/>
 </g>
</svg>
