<?xml version="1.0" encoding="UTF-8"?>
<!DOCTYPE svg PUBLIC "-//W3C//DTD SVG 1.1//EN" "http://www.w3.org/Graphics/SVG/1.1/DTD/svg11.dtd">
<!-- Creator: CorelDRAW X8 -->
<svg xmlns="http://www.w3.org/2000/svg" xml:space="preserve" width="719px" height="946px" version="1.1" style="shape-rendering:geometricPrecision; text-rendering:geometricPrecision; image-rendering:optimizeQuality; fill-rule:evenodd; clip-rule:evenodd"
viewBox="0 0 893 1175"
 xmlns:xlink="http://www.w3.org/1999/xlink">
 <defs>
  <style type="text/css">
   <![CDATA[
    .fil0 {fill:none}
    .fil3 {fill:#FEFEFE}
    .fil1 {fill:#FFCC29}
    .fil2 {fill:#FFCC29;fill-rule:nonzero}
   ]]>
  </style>
 </defs>
 <g id="Capa_x0020_1">
  <metadata id="CorelCorpID_0Corel-Layer"/>
  <rect class="fil0" width="893" height="1175"/>
  <circle class="fil1" cx="446" cy="479" r="446"/>
  <path class="fil2" d="M93 1078c2,1 3,4 3,8 0,3 -2,8 -5,13 -3,5 -7,10 -12,13 -7,6 -17,8 -27,8 -17,0 -30,-5 -39,-15 -9,-11 -13,-24 -13,-41 0,-16 5,-29 14,-39 10,-11 22,-16 38,-16 7,0 14,2 19,4 10,4 17,10 22,19 1,4 2,7 2,9 0,3 0,5 -2,7 -2,2 -4,3 -7,3 -3,0 -5,-1 -6,-2 -2,-1 -3,-4 -6,-9 -2,-4 -5,-7 -9,-10 -4,-2 -9,-3 -14,-3 -8,0 -15,3 -21,9 -5,7 -8,17 -8,30 0,14 3,23 9,30 5,5 12,7 20,7 12,0 21,-6 25,-18 1,-2 1,-4 2,-5 1,-1 2,-2 3,-3 1,-1 3,-2 6,-2 2,0 4,1 6,3z"/>
  <path id="1" class="fil2" d="M132 1103c3,3 6,4 10,4 4,0 8,-1 12,-4 4,-2 6,-5 8,-8 0,-3 1,-8 1,-15 -3,1 -8,2 -15,4 -6,1 -11,2 -14,4 -3,2 -5,4 -5,7 0,3 1,6 3,8zm4 17c-9,0 -16,-2 -20,-7 -5,-5 -7,-10 -7,-16 0,-6 2,-11 6,-14 4,-3 8,-6 12,-7 4,-1 10,-2 17,-4 7,-1 13,-3 19,-4 -1,-7 -2,-11 -4,-13 -2,-2 -6,-3 -11,-3 -9,0 -14,3 -17,8 -1,2 -2,4 -3,4 0,1 -1,2 -2,3 -2,1 -3,1 -5,1 -2,0 -4,-1 -5,-2 -2,-1 -3,-3 -3,-6 0,-3 1,-6 4,-9 6,-8 16,-12 29,-12 9,0 15,1 20,2 9,2 14,8 16,16 0,4 1,8 1,14l-1 18c0,6 1,11 2,15 1,3 2,6 2,8 0,2 -1,4 -3,6 -2,1 -4,2 -6,2 -4,0 -8,-4 -13,-11 -10,7 -19,11 -28,11z"/>
  <path id="2" class="fil2" d="M223 1026l0 78c0,4 -1,7 -1,9 0,1 -1,3 -3,5 -1,1 -4,2 -6,2 -3,0 -5,-1 -7,-2 -2,-2 -3,-4 -3,-5 0,-2 0,-5 0,-9l0 -78c0,-4 0,-7 0,-9 0,-2 1,-3 2,-4 2,-3 5,-4 8,-4 2,0 5,1 6,3 2,2 3,4 3,6 1,2 1,5 1,8z"/>
  <path id="3" class="fil2" d="M263 1055l0 49c0,5 0,8 -1,10 0,1 -1,2 -1,3 -3,2 -5,3 -8,3 -2,0 -5,-1 -6,-2 -2,-2 -3,-4 -3,-5 -1,-2 -1,-5 -1,-9l0 -48c0,-6 0,-9 1,-11 0,-1 1,-2 2,-3 2,-2 4,-3 7,-3 2,0 4,1 6,2 1,0 2,2 3,3 1,2 1,6 1,11zm0 -35c0,3 -1,5 -3,7 -2,2 -4,3 -7,3 -2,0 -5,-1 -7,-3 -1,-2 -2,-4 -2,-7 0,-2 1,-5 2,-7 2,-1 5,-2 7,-2 3,0 5,1 7,2 2,2 3,5 3,7z"/>
  <path id="4" class="fil2" d="M307 1036l0 4 5 0c7,0 11,3 11,8 0,2 -1,4 -2,5 -1,1 -3,2 -4,2 -1,0 -3,0 -5,0l-5 0 0 52c0,5 -1,8 -2,10 -2,1 -3,2 -4,3 -6,1 -9,0 -12,-3 -1,-2 -2,-7 -2,-13l0 -49 -6 0c-6,0 -9,-2 -9,-7 0,-2 1,-4 2,-5 2,-2 4,-3 8,-3l5 0 0 -5c0,-7 1,-13 4,-18 3,-5 10,-8 20,-8 7,0 12,1 15,3 3,1 4,3 4,6 0,2 0,4 -1,5 -1,1 -3,2 -5,2l-8 -1c-4,0 -7,2 -8,4 -1,2 -1,5 -1,8z"/>
  <path id="5" class="fil2" d="M354 1055l0 49c0,5 -1,8 -1,10 0,1 -1,2 -2,3 -2,2 -4,3 -7,3 -3,0 -5,-1 -7,-2 -1,-2 -2,-4 -3,-5 0,-2 0,-5 0,-9l0 -48c0,-6 0,-9 0,-11 1,-1 2,-2 2,-3 3,-2 5,-3 7,-3 3,0 5,1 6,2 2,0 3,2 4,3 0,2 1,6 1,11zm6 -45c2,0 4,1 4,2 0,1 -4,5 -12,11 -2,2 -2,2 -3,3 0,0 -1,0 -2,1 -1,1 -1,1 -2,2 0,0 -1,0 -2,1 -1,1 -3,1 -6,1 -3,0 -4,-1 -4,-2 0,0 1,-2 3,-5l2 -5c3,-4 4,-7 6,-7 1,-1 4,-2 9,-2l7 0z"/>
  <path id="6" class="fil2" d="M422 1060c-4,-4 -8,-6 -13,-6 -5,0 -9,2 -12,6 -5,4 -7,11 -7,19 0,9 2,15 5,20 4,4 8,6 14,6 6,0 10,-2 14,-7 3,-5 5,-11 5,-19 0,-8 -2,-14 -6,-19zm8 -10c0,-7 3,-11 9,-11 3,0 6,1 8,2 1,2 2,4 2,8 1,1 1,3 1,5l0 79c0,5 -1,9 -1,10 -2,5 -5,7 -10,7 -3,0 -5,-1 -7,-3 -1,-2 -2,-4 -2,-6 0,-3 0,-5 0,-7l0 -26c-3,2 -5,4 -6,5 -2,2 -5,3 -8,5 -4,1 -8,2 -13,2 -11,0 -19,-4 -24,-11 -6,-8 -9,-18 -9,-29 0,-12 3,-21 9,-29 6,-8 14,-12 25,-12 4,0 8,1 12,3 4,1 6,3 8,4 2,2 3,4 6,6l0 -2z"/>
  <path id="7" class="fil2" d="M467 1091l0 -36c0,-5 1,-8 1,-10 0,-1 1,-2 2,-3 2,-2 5,-3 7,-3 3,0 5,1 7,3 2,2 3,6 3,14l0 27c0,7 1,12 3,15 2,4 6,7 11,7 3,0 6,-1 9,-3 2,-2 5,-4 6,-7 2,-3 3,-9 2,-20l0 -20c0,-7 1,-11 3,-13 2,-2 5,-3 7,-3 3,0 6,1 8,3 1,1 2,3 2,4 0,2 0,5 0,9l0 50c0,6 0,9 -1,10 -2,4 -4,5 -8,5 -7,0 -10,-4 -9,-14 -6,7 -11,11 -17,13 -8,2 -16,2 -23,-2 -8,-4 -13,-13 -13,-26z"/>
  <path id="8" class="fil2" d="M608 1061c-4,-6 -9,-8 -15,-8 -7,0 -12,3 -16,9 -1,3 -2,7 -2,11l36 0c0,-5 -1,-9 -3,-12zm6 24l-39 0c0,10 4,17 13,21 2,0 4,1 7,1 6,0 13,-3 19,-9 2,-2 3,-3 5,-4 1,-1 2,-1 4,-1 2,0 3,0 5,1 1,1 1,3 1,5 0,3 -2,8 -7,13 -3,2 -6,4 -11,6 -5,1 -10,2 -16,2 -16,0 -28,-6 -34,-17 -3,-5 -5,-10 -6,-13 0,-4 0,-7 0,-10 0,-12 3,-22 10,-29 6,-8 16,-12 29,-12 5,0 10,1 15,2 7,3 13,8 17,15 3,6 4,11 4,17 0,7 -4,11 -12,12 -1,0 -2,0 -4,0z"/>
  <path id="9" class="fil2" d="M718 1071l0 33c0,5 0,8 -1,10 0,1 -1,2 -2,3 -2,2 -4,3 -7,3 -3,0 -5,-1 -7,-3 -2,-2 -3,-6 -3,-13l0 -29c0,-8 -1,-13 -3,-16 -2,-3 -6,-5 -11,-5 -3,0 -6,1 -8,3 -5,2 -8,7 -9,13 0,3 0,7 0,13l0 21c0,5 -1,8 -1,10 -1,1 -1,2 -2,3 -2,2 -5,3 -7,3 -3,0 -5,-1 -7,-3 -2,-1 -3,-4 -3,-7 0,-1 0,-3 0,-6l0 -50c0,-4 0,-7 0,-9 1,-1 1,-3 2,-3 2,-2 5,-3 8,-3 3,0 5,1 7,3 1,3 1,6 2,10 6,-9 15,-13 25,-13 10,0 18,4 23,11 2,5 4,11 4,21z"/>
  <path id="10" class="fil2" d="M787 1099c3,-5 5,-11 5,-19 0,-9 -2,-15 -5,-19 -4,-5 -8,-7 -15,-7 -6,0 -10,2 -14,7 -3,4 -5,10 -5,19 0,8 2,14 5,19 4,4 9,6 14,6 6,0 11,-2 15,-6zm15 -48c7,8 10,17 10,29 0,11 -3,21 -10,29 -7,7 -17,11 -29,11 -7,0 -13,-1 -19,-3 -5,-3 -9,-6 -12,-10 -6,-9 -9,-18 -9,-27 0,-12 3,-21 10,-29 7,-8 17,-12 29,-12 13,0 23,4 30,12z"/>
  <path id="11" class="fil2" d="M893 1094c0,9 -4,16 -10,20 -6,4 -15,6 -25,6 -5,0 -10,0 -14,-1 -7,-2 -12,-6 -16,-10 -2,-4 -4,-7 -4,-9 0,-3 1,-5 3,-7 1,-1 3,-2 6,-2 2,0 4,1 6,3 0,0 1,1 2,3 1,2 2,3 3,4 1,1 3,2 6,4 3,1 6,2 10,2 4,0 7,-1 10,-3 2,-2 3,-4 3,-6 0,-2 0,-4 -1,-5 -2,-3 -6,-5 -13,-6 -7,-2 -13,-3 -17,-5 -5,-2 -8,-3 -10,-5 -1,-2 -3,-4 -5,-6 -1,-3 -2,-5 -2,-8 0,-4 2,-9 6,-14 2,-3 5,-6 9,-7 5,-2 10,-3 17,-3 10,0 18,2 23,6 6,4 9,9 9,13 0,2 -1,4 -2,5 -2,2 -4,3 -5,3 -2,0 -4,-1 -4,-1 -2,0 -5,-3 -8,-7 -3,-3 -8,-5 -14,-5 -2,0 -5,0 -8,1 -3,1 -4,3 -4,6 0,3 1,5 4,6 3,2 9,4 18,6 18,4 27,11 27,22z"/>
  <path id="star.svg" class="fil3" d="M415 215l-73 147 -162 24c-29,4 -41,40 -19,60l117 114 -28 162c-5,29 26,51 51,37l145 -76 145 76c26,14 57,-8 52,-37l-28 -162 117 -114c21,-20 10,-56 -19,-60l-162 -24 -73 -147c-13,-26 -50,-26 -63,0z"/>
 </g>
</svg>
