<?xml version="1.0" encoding="UTF-8"?>
<!DOCTYPE svg PUBLIC "-//W3C//DTD SVG 1.1//EN" "http://www.w3.org/Graphics/SVG/1.1/DTD/svg11.dtd">
<!-- Creator: CorelDRAW X8 -->
<svg xmlns="http://www.w3.org/2000/svg" xml:space="preserve" width="60.8633mm" height="80.1138mm" version="1.1" style="shape-rendering:geometricPrecision; text-rendering:geometricPrecision; image-rendering:optimizeQuality; fill-rule:evenodd; clip-rule:evenodd"
viewBox="0 0 1457 1918"
 xmlns:xlink="http://www.w3.org/1999/xlink">
 <defs>
  <style type="text/css">
   <![CDATA[
    .fil0 {fill:none}
    .fil3 {fill:#FEFEFE}
    .fil1 {fill:#A8518A}
    .fil2 {fill:#A8518A;fill-rule:nonzero}
   ]]>
  </style>
 </defs>
 <g id="Capa_x0020_1">
  <metadata id="CorelCorpID_0Corel-Layer"/>
  <rect class="fil0" width="1457" height="1918"/>
  <circle class="fil1" cx="729" cy="782" r="729"/>
  <path class="fil2" d="M184 1745c4,3 6,9 6,16 0,7 -3,16 -9,26 -5,11 -14,20 -24,27 -15,10 -33,15 -55,15 -33,0 -58,-10 -76,-31 -17,-20 -26,-47 -26,-80 0,-32 9,-59 28,-79 19,-20 44,-30 75,-30 14,0 27,2 39,7 20,8 34,21 42,39 4,7 5,13 5,18 0,5 -1,9 -4,13 -4,4 -8,6 -14,6 -5,0 -10,-1 -12,-4 -3,-3 -7,-9 -11,-17 -5,-9 -11,-16 -20,-21 -8,-4 -16,-7 -26,-7 -17,0 -31,7 -42,20 -11,13 -16,32 -16,59 0,27 6,46 18,58 10,10 23,15 39,15 25,0 42,-12 50,-36 2,-4 3,-7 4,-9 1,-2 3,-5 6,-7 3,-2 7,-3 11,-3 4,0 9,1 12,5z"/>
  <path id="1" class="fil2" d="M323 1787c8,-9 11,-22 11,-38 0,-17 -3,-29 -11,-38 -7,-9 -16,-14 -28,-14 -12,0 -22,5 -29,14 -7,9 -10,21 -10,38 0,16 3,29 10,38 7,8 17,13 29,13 12,0 21,-5 28,-13zm31 -96c13,16 20,35 20,58 0,23 -7,42 -21,58 -14,15 -33,23 -57,22 -14,0 -27,-2 -38,-7 -10,-5 -19,-11 -25,-20 -11,-16 -17,-34 -17,-53 0,-23 7,-42 20,-58 14,-15 33,-23 59,-23 25,0 45,8 59,23z"/>
  <path id="2" class="fil2" d="M630 1727l0 68c0,11 0,18 -1,21 -1,3 -2,6 -4,7 -4,4 -9,6 -15,6 -5,0 -10,-2 -14,-6 -3,-4 -5,-13 -5,-28l0 -58c0,-17 -2,-27 -5,-32 -4,-5 -9,-7 -16,-7 -7,0 -13,2 -18,5 -5,3 -9,8 -11,14 -3,6 -4,17 -4,34l0 44c0,11 0,18 -1,21 -1,3 -2,6 -4,7 -4,4 -9,6 -14,6 -10,0 -16,-3 -18,-11 -2,-5 -3,-13 -3,-23l0 -55c0,-19 -1,-31 -5,-35 -3,-5 -8,-7 -15,-7 -13,0 -21,4 -26,11 -6,7 -8,21 -8,41l0 45c0,11 -1,18 -1,21 -1,3 -3,5 -5,7 -4,4 -8,6 -14,6 -5,0 -10,-2 -14,-6 -3,-2 -4,-5 -5,-9 0,-4 -1,-10 -1,-19l0 -96c0,-8 1,-13 1,-17 0,-3 2,-6 4,-8 4,-4 9,-6 13,-6 4,0 8,1 11,2 3,2 5,4 7,7 1,4 2,8 2,15 13,-16 30,-24 49,-24 19,0 33,8 43,24 13,-16 29,-24 47,-24 8,0 15,1 22,4 8,2 14,6 18,12 4,5 7,11 8,17 2,6 2,15 2,26z"/>
  <path id="3" class="fil2" d="M805 1691c11,16 17,36 17,58 0,23 -5,42 -16,57 -12,16 -28,23 -49,23 -9,0 -17,-1 -25,-4 -7,-4 -13,-7 -16,-9 -3,-3 -7,-7 -11,-11l0 52c0,13 -2,22 -5,26 -3,3 -8,5 -15,5 -10,0 -16,-4 -18,-13 -1,-3 -2,-10 -2,-20l0 -156c0,-9 0,-16 1,-19 1,-3 3,-6 6,-8 3,-3 7,-4 13,-4 13,0 20,7 20,22l0 5c4,-6 8,-10 11,-13 3,-2 8,-6 15,-9 8,-3 16,-5 25,-5 21,0 37,8 49,23zm-60 7c-9,0 -18,4 -26,13 -7,8 -11,20 -11,36 0,16 3,28 10,38 7,9 16,14 27,14 11,0 20,-4 27,-13 7,-8 11,-21 11,-38 0,-17 -4,-29 -12,-38 -7,-8 -16,-12 -26,-12z"/>
  <path id="4" class="fil2" d="M893 1796c4,4 10,7 19,7 8,0 16,-3 24,-7 7,-4 12,-10 14,-18 2,-5 3,-14 3,-29 -6,2 -15,5 -29,7 -13,3 -23,6 -29,9 -6,4 -9,9 -9,15 0,6 2,11 7,16zm7 33c-18,1 -32,-4 -41,-14 -8,-9 -12,-20 -12,-32 0,-12 3,-21 11,-28 8,-6 16,-11 24,-13 8,-2 20,-5 34,-8 14,-3 26,-6 37,-9 -1,-13 -3,-21 -8,-25 -4,-4 -11,-5 -21,-5 -18,0 -29,5 -35,15 -2,4 -4,7 -5,8 -1,2 -3,4 -5,5 -2,2 -5,3 -9,3 -4,0 -7,-2 -11,-4 -3,-3 -5,-7 -5,-13 0,-6 2,-12 7,-17 12,-17 32,-24 59,-24 17,0 30,1 40,4 16,5 27,16 30,33 2,7 2,15 2,26l-1 37c0,11 1,21 4,28 3,8 4,13 4,17 0,4 -2,8 -6,11 -3,4 -7,5 -12,5 -8,0 -16,-7 -25,-23 -20,16 -38,23 -56,23z"/>
  <path id="5" class="fil2" d="M1032 1797l0 -102c0,-18 6,-27 19,-27 12,0 19,8 20,25 2,-5 5,-9 7,-12 2,-3 5,-5 10,-8 10,-7 23,-6 40,1 9,4 13,9 13,17 0,5 -2,9 -5,12 -3,3 -7,4 -10,4 -3,0 -7,0 -12,-2 -6,-2 -11,-3 -16,-3 -5,0 -9,2 -13,6 -9,7 -14,29 -14,64l0 23c0,13 0,21 -2,24 -1,3 -4,5 -7,7 -3,3 -6,4 -10,4 -4,0 -7,-1 -11,-3 -3,-2 -5,-5 -7,-8 -2,-3 -2,-11 -2,-22z"/>
  <path id="6" class="fil2" d="M1253 1810c0,13 -15,20 -44,19 -6,0 -12,-1 -18,-3 -5,-2 -10,-5 -12,-8 -3,-3 -6,-7 -7,-12 -1,-6 -2,-10 -3,-14 0,-4 0,-9 0,-16l0 -76 -5 0c-8,0 -13,-2 -15,-6 -2,-4 -3,-7 -3,-9 0,-9 7,-14 19,-14l4 0 0 -24c0,-12 1,-20 3,-23 3,-7 9,-10 17,-10 8,0 13,3 17,10 2,3 3,10 3,20l0 27 7 0c9,0 15,1 18,2 4,2 7,6 7,12 0,10 -9,15 -25,15l-7 0 0 75c0,8 0,13 1,16 1,3 2,5 4,6 5,2 10,2 15,1 5,-1 10,-2 13,-2 3,0 6,1 8,4 2,3 3,6 3,10z"/>
  <path id="7" class="fil2" d="M1307 1700l0 97c0,10 0,16 -1,19 -1,3 -2,6 -4,7 -4,4 -9,6 -14,6 -6,0 -10,-1 -13,-5 -4,-3 -6,-6 -6,-10 -1,-3 -1,-9 -1,-17l0 -96c0,-11 0,-17 1,-20 1,-3 2,-5 4,-7 5,-4 9,-6 14,-6 4,0 8,1 11,3 3,2 6,4 7,8 2,3 2,10 2,21zm0 -69c0,5 -2,9 -6,13 -4,4 -8,6 -13,6 -6,0 -10,-2 -14,-6 -4,-4 -6,-8 -6,-13 0,-5 2,-10 6,-14 4,-4 8,-6 14,-6 5,0 9,2 13,6 4,4 6,8 6,14z"/>
  <path id="8" class="fil2" d="M1348 1797l0 -102c0,-18 7,-27 20,-27 12,0 18,8 19,25 3,-5 5,-9 7,-12 2,-3 6,-5 10,-8 10,-7 24,-6 40,1 9,4 13,9 13,17 0,5 -1,9 -5,12 -3,3 -6,4 -9,4 -3,0 -7,0 -13,-2 -5,-2 -11,-3 -16,-3 -5,0 -9,2 -13,6 -9,7 -13,29 -13,64l0 23c0,13 -1,21 -2,24 -2,3 -4,5 -7,7 -4,3 -7,4 -11,4 -4,0 -7,-1 -10,-3 -4,-2 -6,-5 -8,-8 -1,-3 -2,-11 -2,-22z"/>
  <path id="share-alt.svg" class="fil3" d="M902 898c-41,0 -78,14 -108,38l-185 -116c2,-12 4,-25 4,-38 0,-12 -2,-25 -4,-37l185 -116c30,23 67,38 108,38 96,0 174,-78 174,-174 0,-96 -78,-174 -174,-174 -96,0 -173,78 -173,174 0,13 1,25 4,38l-186 116c-29,-24 -67,-38 -108,-38 -96,0 -174,77 -174,173 0,96 78,174 174,174 41,0 79,-14 108,-38l186 116c-3,13 -4,25 -4,38 0,0 0,0 0,0 0,96 77,174 173,174 96,0 174,-78 174,-174 0,-96 -78,-174 -174,-174l0 0z"/>
 </g>
</svg>
