<?xml version="1.0" encoding="UTF-8"?>
<!DOCTYPE svg PUBLIC "-//W3C//DTD SVG 1.1//EN" "http://www.w3.org/Graphics/SVG/1.1/DTD/svg11.dtd">
<!-- Creator: CorelDRAW 2019 (64-Bit Versión de evaluación) -->
<svg xmlns="http://www.w3.org/2000/svg" xml:space="preserve" width="327px" height="327px" version="1.1" style="shape-rendering:geometricPrecision; text-rendering:geometricPrecision; image-rendering:optimizeQuality; fill-rule:evenodd; clip-rule:evenodd"
viewBox="0 0 45.79 45.79"
 xmlns:xlink="http://www.w3.org/1999/xlink">
 <defs>
  <style type="text/css">
   <![CDATA[
    .fil1 {fill:#FEFEFE}
    .fil0 {fill:#CB7246}
   ]]>
  </style>
 </defs>
 <g id="Capa_x0020_1">
  <metadata id="CorelCorpID_0Corel-Layer"/>
  <path class="fil0" d="M8.83 0l28.12 0c4.82,0 8.84,4.02 8.84,8.83l0 28.12c0,4.82 -4.02,8.84 -8.84,8.84l-28.12 0c-4.81,0 -8.83,-4.02 -8.83,-8.84l0 -28.12c0,-4.81 4.02,-8.83 8.83,-8.83z"/>
  <path class="fil1" d="M28.75 15.1l-0.28 0 0 -1.43c0,-1.14 -2.29,-2 -5.43,-2 -3.14,0 -5.71,0.86 -5.71,2l0 1.43 -0.29 0c-0.29,0 -0.57,0 -0.57,0.57l0 2c0,0.29 0.28,0.57 0.57,0.57l0.29 0 0 4c0,0.29 0.28,0.57 0.85,0.57l0 0.86c0,0.57 0.29,0.85 0.86,0.85l0.86 0c0.29,0 0.57,-0.28 0.57,-0.85l0 -0.86 4.85 0 0 0.86c0,0.57 0.29,0.85 0.86,0.85l0.86 0c0.29,0 0.57,-0.28 0.57,-0.85l0 -0.86 0.28 0c0.29,0 0.58,-0.28 0.58,-0.57l0 -4 0.28 0c0.29,0 0.57,-0.28 0.57,-0.57l0 -2c0,-0.57 -0.28,-0.57 -0.57,-0.57l0 0zm-9.43 6.57c-0.28,0 -0.85,-0.29 -0.85,-0.86 0,-0.29 0.57,-0.57 0.85,-0.57 0.58,0 0.87,0.28 0.87,0.57 0,0.57 -0.29,0.86 -0.87,0.86zm0.58 -2.86c-0.58,0 -0.86,-0.29 -0.86,-0.57l0 -3.14c0,-0.58 0.28,-0.86 0.86,-0.86l6.28 0c0.29,0 0.86,0.28 0.86,0.86l0 3.14c0,0.28 -0.57,0.57 -0.86,0.57l-6.28 0zm6.57 2.86c-0.29,0 -0.86,-0.29 -0.86,-0.86 0,-0.29 0.57,-0.57 0.86,-0.57 0.57,0 0.86,0.28 0.86,0.57 0,0.57 -0.29,0.86 -0.86,0.86z"/>
 </g>
 <g id="Capa_x0020_1_0">
  <metadata id="CorelCorpID_1Corel-Layer"/>
  <path id="map-marker-alt.svg" class="fil1" d="M21.43 41.27c-10.88,-15.73 -12.91,-17.36 -12.91,-23.17 0,-7.95 6.43,-14.38 14.38,-14.38 7.95,0 14.38,6.43 14.38,14.38 0,5.81 -2.03,7.44 -12.92,23.17 -0.67,1.07 -2.25,1.07 -2.93,0l0 0zm1.47 -32.88c5.36,0 9.71,4.35 9.71,9.71 0,5.36 -4.35,9.71 -9.71,9.71 -5.36,0 -9.71,-4.35 -9.71,-9.71 0,-5.36 4.35,-9.71 9.71,-9.71z"/>
 </g>
</svg>
