<?xml version="1.0" encoding="UTF-8"?>
<!DOCTYPE svg PUBLIC "-//W3C//DTD SVG 1.1//EN" "http://www.w3.org/Graphics/SVG/1.1/DTD/svg11.dtd">
<!-- Creator: CorelDRAW 2019 (64-Bit) -->
<svg xmlns="http://www.w3.org/2000/svg" xml:space="preserve" width="642px" height="856px" version="1.1" style="shape-rendering:geometricPrecision; text-rendering:geometricPrecision; image-rendering:optimizeQuality; fill-rule:evenodd; clip-rule:evenodd"
viewBox="0 0 642.22 856.43"
 xmlns:xlink="http://www.w3.org/1999/xlink">
 <defs>
  <style type="text/css">
   <![CDATA[
    .fil0 {fill:#FEFEFE}
   ]]>
  </style>
 </defs>
 <g id="Capa_x0020_1">
  <metadata id="CorelCorpID_0Corel-Layer"/>
  <path class="fil0" d="M451.74 254.12l-6.25 0 0 -31.93c0,-25.46 -51.14,-44.66 -121.25,-44.66 -70.12,0 -127.51,19.2 -127.51,44.66l0 31.93 -6.48 0c-6.47,0 -12.72,0 -12.72,12.73l0 44.66c0,6.48 6.25,12.73 12.72,12.73l6.48 0 0 89.32c0,6.48 6.25,12.73 18.98,12.73l0 19.2c0,12.73 6.48,18.98 19.2,18.98l19.21 0c6.47,0 12.73,-6.25 12.73,-18.98l0 -19.2 108.3 0 0 19.2c0,12.73 6.47,18.98 19.2,18.98l19.21 0c6.47,0 12.72,-6.25 12.72,-18.98l0 -19.2 6.26 0c6.47,0 12.95,-6.25 12.95,-12.73l0 -89.32 6.25 0c6.48,0 12.73,-6.25 12.73,-12.73l0 -44.66c0,-12.73 -6.25,-12.73 -12.73,-12.73l0 0 0 0zm-210.57 146.71c-6.25,0 -18.98,-6.47 -18.98,-19.2 0,-6.48 12.73,-12.73 18.98,-12.73 12.95,0 19.43,6.25 19.43,12.73 0,12.73 -6.48,19.2 -19.43,19.2zm12.95 -63.86c-12.95,0 -19.2,-6.48 -19.2,-12.73l0 -70.12c0,-12.95 6.25,-19.2 19.2,-19.2l140.24 0c6.47,0 19.2,6.25 19.2,19.2l0 70.12c0,6.25 -12.73,12.73 -19.2,12.73l-140.24 0zm146.71 63.86c-6.47,0 -19.2,-6.47 -19.2,-19.2 0,-6.48 12.73,-12.73 19.2,-12.73 12.73,0 19.2,6.25 19.2,12.73 0,12.73 -6.47,19.2 -19.2,19.2z"/>
 </g>
 <g id="Capa_x0020_1_0">
  <metadata id="CorelCorpID_1Corel-Layer"/>
  <path id="map-marker-alt.svg" class="fil0" d="M288.29 838.51c-242.96,-351.26 -288.29,-387.66 -288.29,-517.4 0,-177.53 143.58,-321.11 321.11,-321.11 177.53,0 321.11,143.58 321.11,321.11 0,129.74 -45.33,166.14 -288.5,517.4 -14.97,23.89 -50.25,23.89 -65.43,0l0 0 0 0zm32.82 -734.23c119.69,0 216.83,97.14 216.83,216.83 0,119.69 -97.14,216.83 -216.83,216.83 -119.69,0 -216.83,-97.14 -216.83,-216.83 0,-119.69 97.14,-216.83 216.83,-216.83z"/>
 </g>
</svg>
