<?xml version="1.0" encoding="UTF-8"?>
<!DOCTYPE svg PUBLIC "-//W3C//DTD SVG 1.1//EN" "http://www.w3.org/Graphics/SVG/1.1/DTD/svg11.dtd">
<!-- Creator: CorelDRAW 2019 (64-Bit) -->
<svg xmlns="http://www.w3.org/2000/svg" xml:space="preserve" width="542px" height="564px" version="1.1" style="shape-rendering:geometricPrecision; text-rendering:geometricPrecision; image-rendering:optimizeQuality; fill-rule:evenodd; clip-rule:evenodd"
viewBox="0 0 994.26 1034.03"
 xmlns:xlink="http://www.w3.org/1999/xlink">
 <defs>
  <style type="text/css">
   <![CDATA[
    .str0 {stroke:#FEFEFE;stroke-width:4.33;stroke-miterlimit:22.9256}
    .fil0 {fill:#FEFEFE}
   ]]>
  </style>
 </defs>
 <g id="Capa_x0020_1">
  <metadata id="CorelCorpID_0Corel-Layer"/>
  <path class="fil0 str0" d="M249.65 88.36c75.22,-43.43 160.62,-66.31 247.48,-66.31 273.34,0 494.97,221.63 494.97,494.97 0,41.65 -33.97,75.62 -75.62,75.62 -41.65,0 -75.62,-33.97 -75.62,-75.62 0,-189.86 -153.87,-343.73 -343.73,-343.73 -60.32,0 -119.62,15.89 -171.86,46.05l48.52 84.03 -172.66 0.01 -172.65 0 86.32 -149.53 86.33 -149.52 48.52 84.03zm543.48 642.29l172.66 0 -86.33 149.53 -86.32 149.52 -48.52 -84.03c-75.23,43.43 -160.63,66.31 -247.49,66.31 -273.34,0 -494.96,-221.63 -494.96,-494.96 0,-41.65 33.97,-75.62 75.62,-75.62 41.65,0 75.62,33.97 75.62,75.62 0,189.85 153.86,343.72 343.72,343.72 60.32,0 119.63,-15.89 171.87,-46.05l-48.52 -84.03 172.65 -0.01z"/>
 </g>
</svg>
