<?xml version="1.0" encoding="UTF-8"?>
<!DOCTYPE svg PUBLIC "-//W3C//DTD SVG 1.1//EN" "http://www.w3.org/Graphics/SVG/1.1/DTD/svg11.dtd">
<!-- Creator: CorelDRAW 2019 (64-Bit) -->
<svg xmlns="http://www.w3.org/2000/svg" xml:space="preserve" width="719px" height="719px" version="1.1" style="shape-rendering:geometricPrecision; text-rendering:geometricPrecision; image-rendering:optimizeQuality; fill-rule:evenodd; clip-rule:evenodd"
viewBox="0 0 1745.43 1745.43"
 xmlns:xlink="http://www.w3.org/1999/xlink">
 <defs>
  <style type="text/css">
   <![CDATA[
    .fil0 {fill:#00A859}
    .fil1 {fill:#FEFEFE}
   ]]>
  </style>
 </defs>
 <g id="Capa_x0020_1">
  <metadata id="CorelCorpID_0Corel-Layer"/>
  <circle class="fil0" cx="872.72" cy="872.72" r="872.72"/>
  <path class="fil1" d="M343.59 618.46l0 635.64c0,20.61 20.61,36.08 41.23,27.49l252.54 -115.1 0 -706.08 -255.98 103.08c-22.33,8.59 -37.79,30.92 -37.79,54.97l0 0 0 0zm352.18 548.03l353.89 116.82 0 -704.36 -353.89 -118.54 0 706.08 0 0zm666.56 -704.36l-254.26 116.82 0 704.36 257.7 -103.08c22.33,-8.59 36.07,-29.21 36.07,-53.26l0 -637.36c0,-20.61 -20.61,-34.35 -39.51,-27.48l0 0z"/>
 </g>
</svg>
